<svg width="58" height="40" viewBox="0 0 58 40" fill="none" xmlns="http://www.w3.org/2000/svg">
<g clip-path="url(#clip0_2164_20836)">
<rect width="2.89979" height="40" fill="black"/>
<rect x="2.72949" width="3.07036" height="40" fill="#090909"/>
<rect x="5.62891" width="5.629" height="40" fill="#121212"/>
<rect x="11.0874" width="8.69936" height="40" fill="#1C1C1C"/>
<rect x="19.6157" width="14.4989" height="40" fill="#252525"/>
<rect x="33.9434" width="23.1983" height="40" fill="#2E2E2E"/>
<path d="M5.82841 18.6485C5.96475 18.8359 6.07381 19.0454 6.15016 19.2715C6.22651 19.4975 6.26469 19.7401 6.26469 19.9937C6.26469 20.2473 6.22106 20.4899 6.15016 20.7159C6.07381 20.942 5.96475 21.1515 5.82841 21.3389C5.63753 21.5981 5.69207 21.9564 5.94839 22.1494C6.2047 22.3424 6.55918 22.2872 6.75005 22.0281C6.95729 21.7469 7.12635 21.4272 7.24087 21.0853C7.3554 20.7435 7.41538 20.3741 7.41538 19.9937C7.41538 19.6133 7.3554 19.2494 7.24087 18.9021C7.12635 18.5603 6.96274 18.2405 6.75005 17.9593C6.55918 17.7002 6.2047 17.6506 5.94839 17.838C5.69752 18.031 5.64299 18.3894 5.82841 18.6485Z" fill="white"/>
<path d="M7.78776 17.5729C8.21859 18.2786 8.46401 19.1055 8.46401 19.9987C8.46401 20.8918 8.21859 21.7133 7.78776 22.419C7.62416 22.6892 7.70596 23.0475 7.97319 23.2129C8.24041 23.3838 8.59489 23.2956 8.75849 23.0255C9.29294 22.1433 9.60925 21.1069 9.60379 19.9987C9.60379 18.8905 9.29294 17.8485 8.75849 16.9664C8.59489 16.6962 8.24041 16.6135 7.97319 16.7789C7.70596 16.9499 7.6187 17.3027 7.78776 17.5729Z" fill="white"/>
<path d="M9.86289 16.4706C10.4573 17.507 10.8009 18.7034 10.8009 19.9935C10.8009 21.2836 10.4573 22.48 9.85744 23.5165C9.69928 23.7922 9.79199 24.145 10.0647 24.3049C10.3373 24.4648 10.6864 24.3711 10.8445 24.0954C11.5426 22.888 11.9407 21.4876 11.9407 19.988C11.9407 18.4884 11.5426 17.088 10.8445 15.8861C10.6864 15.6105 10.3373 15.5168 10.0647 15.6766C9.79199 15.8365 9.69928 16.1894 9.85744 16.465" fill="white"/>
<path d="M11.9376 15.3741C12.7066 16.7359 13.1428 18.3127 13.1428 19.9943C13.1428 21.6758 12.7066 23.2526 11.9376 24.6199C11.7795 24.8956 11.8776 25.2484 12.1503 25.4083C12.423 25.5682 12.7774 25.4689 12.9301 25.1933C13.7918 23.6606 14.2881 21.8853 14.2881 19.9998C14.2881 18.1142 13.7973 16.3335 12.9301 14.8063C12.772 14.5306 12.423 14.4314 12.1503 14.5913C11.8776 14.7511 11.7795 15.0985 11.9376 15.3797" fill="white"/>
<path d="M48.993 4.36015H47.4785L45.2208 8.20845H44.1069V9.35889H45.8771L47.7303 6.19945V9.35763H49.2209L51.0647 6.19V9.35763H52.3321V4.35889H50.8128L48.993 7.45881V4.36015Z" fill="white"/>
<path d="M49.3953 31.6665H46.8594V36.4482H49.3953V31.6665Z" fill="#FF5F00"/>
<path d="M47.0061 34.0568C47.0061 33.1313 47.4104 32.2444 48.1087 31.666C46.8591 30.6248 45.0215 30.8562 44.0475 32.1865C43.0552 33.4977 43.2757 35.4258 44.5437 36.4477C45.5911 37.3153 47.0797 37.3153 48.1271 36.4477C47.4288 35.8885 47.0061 35.0016 47.0061 34.0568Z" fill="#EB001B"/>
<path d="M52.8125 34.0568C52.8125 35.7343 51.5078 37.1032 49.909 37.1032C49.2658 37.1032 48.6226 36.8718 48.1265 36.4477C49.3761 35.4065 49.5966 33.4977 48.6043 32.1673C48.4572 31.9745 48.2919 31.8009 48.1265 31.666C49.3761 30.6248 51.2137 30.8562 52.1877 32.1865C52.592 32.7264 52.8125 33.382 52.8125 34.0568Z" fill="#F79E1B"/>
<path d="M52.538 35.9467V35.8503H52.5748V35.8311H52.4829V35.8503H52.5196V35.9467H52.538ZM52.7217 35.9467V35.8311H52.685L52.6482 35.9081L52.6115 35.8311H52.5748V35.9467H52.5931V35.8503L52.6299 35.9274H52.6482L52.685 35.8503V35.9467H52.7217Z" fill="#F79E1B"/>
</g>
<defs>
<clipPath id="clip0_2164_20836">
<rect width="57.1429" height="40" rx="3.80952" fill="white"/>
</clipPath>
</defs>
</svg>
