<svg width="351" height="232" viewBox="0 0 351 232" fill="none" xmlns="http://www.w3.org/2000/svg">
<g filter="url(#filter0_dd_2164_20791)">
<g clip-path="url(#clip0_2164_20791)">
<rect x="8" y="4" width="335" height="216" rx="8" fill="white"/>
<rect x="8" y="4" width="266" height="174" rx="8" fill="white"/>
<rect x="8.5" y="4.5" width="265" height="173" rx="7.5" stroke="black" stroke-opacity="0.11"/>
<rect x="8" y="4" width="17.0001" height="217.102" fill="black"/>
<rect x="24.0015" y="4" width="18.0001" height="217.102" fill="#090909"/>
<rect x="41.001" y="4" width="33.0003" height="217.102" fill="#121212"/>
<rect x="72.9995" y="4" width="51.0004" height="217.102" fill="#1C1C1C"/>
<rect x="123" y="4" width="85.0007" height="217.102" fill="#252525"/>
<rect x="206.999" y="4" width="136.001" height="217.102" fill="#2E2E2E"/>
<path d="M303.321 166.921H282.789V203.048H303.321V166.921Z" fill="#FF5F00"/>
<path d="M283.981 184.984C283.981 177.992 287.255 171.291 292.909 166.921C282.791 159.055 267.912 160.803 260.026 170.854C251.991 180.759 253.777 195.327 264.043 203.047C272.524 209.602 284.576 209.602 293.057 203.047C287.403 198.823 283.981 192.122 283.981 184.984Z" fill="#EB001B"/>
<path d="M330.998 184.984C330.998 197.657 320.434 208 307.49 208C302.282 208 297.074 206.252 293.057 203.047C303.175 195.181 304.96 180.759 296.926 170.708C295.735 169.251 294.396 167.94 293.057 166.921C303.175 159.055 318.054 160.803 325.94 170.854C329.213 174.933 330.998 179.885 330.998 184.984Z" fill="#F79E1B"/>
<path d="M328.764 199.26V198.532H329.061V198.387H328.318V198.532H328.615V199.26H328.764ZM330.251 199.26V198.387H329.954L329.656 198.969L329.359 198.387H329.061V199.26H329.21V198.532L329.508 199.115H329.656L329.954 198.532V199.26H330.251Z" fill="#F79E1B"/>
<path d="M282.141 26.8777V37.0908L286.32 37.0823V41.3293H277.387V26.8743H274.684V22.7361H277.385V16.6001H282.141V22.7395H286.32V26.8777H282.141Z" fill="white"/>
<path d="M293.088 16.6001V20.8335H293.087V20.8369H288.342V16.6001H293.088Z" fill="white"/>
<path d="M241.335 22.7344H235.653L227.159 37.0908H223V41.3377H229.641L236.59 29.5805V41.3292H242.196L249.114 29.5465V41.3292H253.87V22.7344H248.162L241.335 34.2657V22.7344Z" fill="white"/>
<path d="M288.337 22.7344H293.094V41.3292H288.337V22.7344Z" fill="white"/>
<path fill-rule="evenodd" clip-rule="evenodd" d="M264.999 22.5186H265.035C270.151 22.5186 274.222 26.8064 274.222 32.0318C274.222 37.2573 270.151 41.545 265.035 41.545H264.999C259.884 41.545 255.776 37.298 255.776 32.0318C255.776 26.7656 259.884 22.5186 264.999 22.5186ZM264.999 36.7884H265.035V36.785C267.522 36.785 269.467 34.6598 269.47 32.0318C269.47 29.4361 267.484 27.2752 265.035 27.2752H264.999C262.478 27.2752 260.533 29.4004 260.533 32.0318C260.533 34.6632 262.478 36.7884 264.999 36.7884Z" fill="white"/>
<path fill-rule="evenodd" clip-rule="evenodd" d="M322.486 37.3201C324.397 37.3201 325.588 36.204 325.912 35.2289H330.669C330.489 36.7799 328.433 41.5416 322.482 41.5416C317.109 41.5416 313.139 37.5019 313.139 32.0182C313.139 26.645 317.216 22.4966 322.336 22.4966C327.205 22.4966 331 26.752 331 31.9469C331 32.4871 330.964 32.9933 330.929 33.3535H318.018C318.339 35.6264 319.71 37.3201 322.486 37.3201ZM318.169 29.9627L326.318 29.9627C325.809 28.094 324.551 26.7163 322.351 26.7163C320.046 26.7163 318.704 28.0516 318.169 29.9627Z" fill="white"/>
<path d="M304.426 34.9011L308.958 22.7378V22.748H314.026L306.789 41.3292H302.002L294.808 22.7378H299.894L304.426 34.9011Z" fill="white"/>
<path d="M271.896 60V51.2727H275.169C275.839 51.2727 276.402 51.3977 276.856 51.6477C277.314 51.8977 277.659 52.2415 277.892 52.679C278.127 53.1136 278.245 53.608 278.245 54.1619C278.245 54.7216 278.127 55.2187 277.892 55.6534C277.656 56.0881 277.308 56.4304 276.848 56.6804C276.387 56.9276 275.821 57.0511 275.147 57.0511H272.978V55.7514H274.934C275.326 55.7514 275.647 55.6832 275.897 55.5469C276.147 55.4105 276.332 55.223 276.451 54.9844C276.574 54.7457 276.635 54.4716 276.635 54.1619C276.635 53.8523 276.574 53.5795 276.451 53.3438C276.332 53.108 276.146 52.9247 275.893 52.794C275.643 52.6605 275.321 52.5938 274.926 52.5938H273.477V60H271.896ZM279.767 60H278.079L281.152 51.2727H283.103L286.18 60H284.493L282.162 53.0625H282.093L279.767 60ZM279.822 56.5781H284.424V57.848H279.822V56.5781ZM285.842 51.2727H287.628L289.763 55.1335H289.848L291.983 51.2727H293.768L290.594 56.7443V60H289.017V56.7443L285.842 51.2727ZM305.335 54.2173H303.741C303.696 53.956 303.612 53.7244 303.49 53.5227C303.368 53.3182 303.216 53.1449 303.034 53.0028C302.852 52.8608 302.645 52.7543 302.412 52.6832C302.181 52.6094 301.933 52.5724 301.666 52.5724C301.191 52.5724 300.771 52.6918 300.404 52.9304C300.038 53.1662 299.751 53.5128 299.544 53.9702C299.336 54.4247 299.233 54.9801 299.233 55.6364C299.233 56.304 299.336 56.8665 299.544 57.3239C299.754 57.7784 300.041 58.1222 300.404 58.3551C300.771 58.5852 301.19 58.7003 301.662 58.7003C301.923 58.7003 302.167 58.6662 302.395 58.598C302.625 58.527 302.831 58.4233 303.012 58.2869C303.197 58.1506 303.352 57.983 303.477 57.7841C303.605 57.5852 303.693 57.358 303.741 57.1023L305.335 57.1108C305.275 57.5256 305.146 57.9148 304.947 58.2784C304.751 58.642 304.494 58.9631 304.176 59.2415C303.858 59.517 303.485 59.733 303.059 59.8892C302.633 60.0426 302.16 60.1193 301.64 60.1193C300.873 60.1193 300.189 59.9418 299.586 59.5866C298.984 59.2315 298.51 58.7188 298.163 58.0483C297.816 57.3778 297.643 56.5739 297.643 55.6364C297.643 54.696 297.818 53.892 298.167 53.2244C298.517 52.554 298.993 52.0412 299.595 51.6861C300.197 51.331 300.879 51.1534 301.64 51.1534C302.126 51.1534 302.578 51.2216 302.995 51.358C303.413 51.4943 303.785 51.6946 304.112 51.9588C304.439 52.2202 304.707 52.5412 304.917 52.9219C305.13 53.2997 305.27 53.7315 305.335 54.2173ZM307.798 60H306.11L309.183 51.2727H311.135L314.211 60H312.524L310.193 53.0625H310.125L307.798 60ZM307.853 56.5781H312.456V57.848H307.853V56.5781ZM315.361 60V51.2727H318.634C319.304 51.2727 319.866 51.3892 320.321 51.6222C320.778 51.8551 321.124 52.1818 321.357 52.6023C321.592 53.0199 321.71 53.5071 321.71 54.0639C321.71 54.6236 321.591 55.1094 321.352 55.5213C321.116 55.9304 320.768 56.2472 320.308 56.4716C319.848 56.6932 319.283 56.804 318.612 56.804H316.281V55.4915H318.399C318.791 55.4915 319.112 55.4375 319.362 55.3295C319.612 55.2187 319.797 55.0582 319.916 54.848C320.038 54.6349 320.099 54.3736 320.099 54.0639C320.099 53.7543 320.038 53.4901 319.916 53.2713C319.794 53.0497 319.608 52.8821 319.358 52.7685C319.108 52.652 318.786 52.5938 318.391 52.5938H316.942V60H315.361ZM319.869 56.0455L322.03 60H320.266L318.143 56.0455H319.869ZM326.123 60H323.165V51.2727H326.183C327.049 51.2727 327.793 51.4474 328.415 51.7969C329.04 52.1435 329.521 52.642 329.856 53.2926C330.191 53.9432 330.359 54.7216 330.359 55.6278C330.359 56.5369 330.19 57.3182 329.852 57.9716C329.516 58.625 329.032 59.1264 328.398 59.4759C327.768 59.8253 327.009 60 326.123 60ZM324.746 58.6321H326.046C326.654 58.6321 327.161 58.5213 327.567 58.2997C327.974 58.0753 328.279 57.7415 328.484 57.2983C328.688 56.8523 328.79 56.2955 328.79 55.6278C328.79 54.9602 328.688 54.4062 328.484 53.9659C328.279 53.5227 327.977 53.1918 327.576 52.973C327.178 52.7514 326.684 52.6406 326.093 52.6406H324.746V58.6321Z" fill="white"/>
<rect x="24" y="20" width="61" height="24" rx="2" fill="#E0F7E5"/>
<path d="M31.6573 37V26.8182H32.8902V35.9062H37.6232V37H31.6573ZM42.4671 37.1591C41.7777 37.1591 41.1728 36.995 40.6524 36.6669C40.1354 36.3388 39.731 35.8797 39.4394 35.2898C39.151 34.6998 39.0068 34.0104 39.0068 33.2216C39.0068 32.4261 39.151 31.7318 39.4394 31.1385C39.731 30.5452 40.1354 30.0845 40.6524 29.7564C41.1728 29.4283 41.7777 29.2642 42.4671 29.2642C43.1565 29.2642 43.7597 29.4283 44.2767 29.7564C44.7971 30.0845 45.2014 30.5452 45.4898 31.1385C45.7815 31.7318 45.9273 32.4261 45.9273 33.2216C45.9273 34.0104 45.7815 34.6998 45.4898 35.2898C45.2014 35.8797 44.7971 36.3388 44.2767 36.6669C43.7597 36.995 43.1565 37.1591 42.4671 37.1591ZM42.4671 36.1051C42.9907 36.1051 43.4216 35.9709 43.7597 35.7024C44.0977 35.4339 44.348 35.081 44.5104 34.6435C44.6728 34.206 44.754 33.732 44.754 33.2216C44.754 32.7112 44.6728 32.2356 44.5104 31.7947C44.348 31.3539 44.0977 30.9976 43.7597 30.7259C43.4216 30.4541 42.9907 30.3182 42.4671 30.3182C41.9434 30.3182 41.5125 30.4541 41.1744 30.7259C40.8364 30.9976 40.5861 31.3539 40.4237 31.7947C40.2613 32.2356 40.1801 32.7112 40.1801 33.2216C40.1801 33.732 40.2613 34.206 40.4237 34.6435C40.5861 35.081 40.8364 35.4339 41.1744 35.7024C41.5125 35.9709 41.9434 36.1051 42.4671 36.1051ZM50.8122 37.1591C50.0963 37.1591 49.4798 36.9901 48.9627 36.652C48.4457 36.3139 48.048 35.8482 47.7696 35.255C47.4911 34.6617 47.3519 33.9839 47.3519 33.2216C47.3519 32.446 47.4945 31.7616 47.7795 31.1683C48.0679 30.5717 48.4689 30.1061 48.9826 29.7713C49.4997 29.4332 50.1029 29.2642 50.7923 29.2642C51.3292 29.2642 51.8131 29.3636 52.244 29.5625C52.6749 29.7614 53.0278 30.0398 53.3029 30.3977C53.578 30.7557 53.7487 31.1733 53.815 31.6506H52.6417C52.5522 31.3026 52.3534 30.9943 52.0451 30.7259C51.7402 30.4541 51.3292 30.3182 50.8122 30.3182C50.3548 30.3182 49.9537 30.4375 49.609 30.6761C49.2677 30.9115 49.0009 31.2446 48.8086 31.6754C48.6197 32.103 48.5252 32.6051 48.5252 33.1818C48.5252 33.7718 48.618 34.2855 48.8036 34.723C48.9926 35.1605 49.2577 35.5002 49.5991 35.7422C49.9438 35.9841 50.3482 36.1051 50.8122 36.1051C51.1171 36.1051 51.3938 36.0521 51.6424 35.946C51.891 35.84 52.1015 35.6875 52.2738 35.4886C52.4462 35.2898 52.5688 35.0511 52.6417 34.7727H53.815C53.7487 35.2235 53.5847 35.6295 53.3228 35.9908C53.0643 36.3487 52.7213 36.6338 52.2937 36.8459C51.8695 37.0547 51.3756 37.1591 50.8122 37.1591ZM56.6156 34.2159L56.5957 32.7642H56.8343L60.1752 29.3636H61.6269L58.0673 32.9631H57.9678L56.6156 34.2159ZM55.5218 37V26.8182H56.6951V37H55.5218ZM60.3741 37L57.3911 33.2216L58.2264 32.4062L61.8656 37H60.3741ZM66.0159 37.1591C65.2801 37.1591 64.6454 36.9967 64.1118 36.6719C63.5815 36.3438 63.1721 35.8864 62.8838 35.2997C62.5988 34.7098 62.4562 34.0237 62.4562 33.2415C62.4562 32.4593 62.5988 31.7699 62.8838 31.1733C63.1721 30.5734 63.5732 30.1061 64.0869 29.7713C64.604 29.4332 65.2072 29.2642 65.8966 29.2642C66.2943 29.2642 66.6871 29.3305 67.0748 29.4631C67.4626 29.5956 67.8156 29.8111 68.1338 30.1094C68.452 30.4044 68.7055 30.7955 68.8944 31.2827C69.0834 31.7699 69.1778 32.3698 69.1778 33.0824V33.5795H63.2915V32.5653H67.9846C67.9846 32.1345 67.8985 31.75 67.7261 31.4119C67.5571 31.0739 67.3151 30.8071 67.0003 30.6115C66.6887 30.416 66.3208 30.3182 65.8966 30.3182C65.4293 30.3182 65.0249 30.4342 64.6835 30.6662C64.3454 30.8949 64.0853 31.1932 63.903 31.5611C63.7207 31.929 63.6295 32.3234 63.6295 32.7443V33.4205C63.6295 33.9972 63.729 34.486 63.9278 34.8871C64.13 35.2848 64.4101 35.5881 64.768 35.7969C65.126 36.0024 65.5419 36.1051 66.0159 36.1051C66.3241 36.1051 66.6025 36.062 66.8511 35.9759C67.103 35.8864 67.3201 35.7538 67.5024 35.5781C67.6847 35.3991 67.8256 35.1771 67.925 34.9119L69.0585 35.2301C68.9392 35.6146 68.7387 35.9527 68.4569 36.2443C68.1752 36.5327 67.8272 36.758 67.4129 36.9205C66.9986 37.0795 66.5329 37.1591 66.0159 37.1591ZM73.8378 37.1591C73.2014 37.1591 72.6396 36.9983 72.1524 36.6768C71.6652 36.352 71.284 35.8946 71.0089 35.3047C70.7338 34.7114 70.5963 34.0104 70.5963 33.2017C70.5963 32.3996 70.7338 31.7036 71.0089 31.1136C71.284 30.5237 71.6668 30.0679 72.1574 29.7464C72.6479 29.425 73.2146 29.2642 73.8576 29.2642C74.3548 29.2642 74.7476 29.3471 75.0359 29.5128C75.3276 29.6752 75.5496 29.8608 75.7021 30.0696C75.8579 30.2751 75.9789 30.4441 76.065 30.5767H76.1645V26.8182H77.3378V37H76.2042V35.8267H76.065C75.9789 35.9659 75.8562 36.1416 75.6971 36.3537C75.538 36.5625 75.311 36.7498 75.016 36.9155C74.721 37.0779 74.3283 37.1591 73.8378 37.1591ZM73.9968 36.1051C74.4675 36.1051 74.8652 35.9825 75.19 35.7372C75.5148 35.4886 75.7618 35.1456 75.9308 34.7081C76.0998 34.2673 76.1843 33.7585 76.1843 33.1818C76.1843 32.6117 76.1015 32.1129 75.9358 31.6854C75.77 31.2545 75.5248 30.9197 75.2 30.6811C74.8752 30.4392 74.4741 30.3182 73.9968 30.3182C73.4997 30.3182 73.0854 30.4458 72.7539 30.701C72.4258 30.9529 72.1789 31.2959 72.0132 31.7301C71.8508 32.161 71.7696 32.6449 71.7696 33.1818C71.7696 33.7254 71.8524 34.2192 72.0182 34.6634C72.1872 35.1042 72.4358 35.4555 72.7639 35.7173C73.0953 35.9759 73.5063 36.1051 73.9968 36.1051Z" fill="#1B6C2D"/>
<path d="M29.8636 92.3636H31.2727V100.682C31.2727 101.424 31.1364 102.055 30.8636 102.574C30.5909 103.093 30.2064 103.487 29.7102 103.756C29.214 104.025 28.6288 104.159 27.9545 104.159C27.3182 104.159 26.7519 104.044 26.2557 103.812C25.7595 103.578 25.3693 103.244 25.0852 102.812C24.8011 102.381 24.6591 101.867 24.6591 101.273H26.0455C26.0455 101.602 26.1269 101.89 26.2898 102.136C26.4564 102.379 26.6837 102.568 26.9716 102.705C27.2595 102.841 27.5871 102.909 27.9545 102.909C28.3598 102.909 28.7045 102.824 28.9886 102.653C29.2727 102.483 29.4886 102.233 29.6364 101.903C29.7879 101.57 29.8636 101.163 29.8636 100.682V92.3636ZM36.307 104.205C35.7539 104.205 35.252 104.1 34.8013 103.892C34.3505 103.68 33.9926 103.375 33.7274 102.977C33.4623 102.576 33.3297 102.091 33.3297 101.523C33.3297 101.023 33.4282 100.617 33.6251 100.307C33.8221 99.9924 34.0854 99.7462 34.4149 99.5682C34.7445 99.3902 35.1081 99.2576 35.5058 99.1705C35.9073 99.0795 36.3107 99.0076 36.716 98.9545C37.2463 98.8864 37.6763 98.8352 38.0058 98.8011C38.3392 98.7633 38.5816 98.7008 38.7331 98.6136C38.8884 98.5265 38.966 98.375 38.966 98.1591V98.1136C38.966 97.553 38.8126 97.1174 38.5058 96.8068C38.2028 96.4962 37.7426 96.3409 37.1251 96.3409C36.485 96.3409 35.9831 96.4811 35.6195 96.7614C35.2558 97.0417 35.0001 97.3409 34.8524 97.6591L33.5797 97.2045C33.807 96.6742 34.11 96.2614 34.4888 95.9659C34.8713 95.6667 35.288 95.4583 35.7388 95.3409C36.1933 95.2197 36.6403 95.1591 37.0797 95.1591C37.36 95.1591 37.682 95.1932 38.0456 95.2614C38.413 95.3258 38.7672 95.4602 39.1081 95.6648C39.4528 95.8693 39.7388 96.178 39.966 96.5909C40.1933 97.0038 40.307 97.5568 40.307 98.25V104H38.966V102.818H38.8979C38.807 103.008 38.6554 103.21 38.4433 103.426C38.2312 103.642 37.949 103.826 37.5967 103.977C37.2445 104.129 36.8145 104.205 36.307 104.205ZM36.5115 103C37.0418 103 37.4888 102.896 37.8524 102.688C38.2198 102.479 38.4963 102.21 38.682 101.881C38.8713 101.551 38.966 101.205 38.966 100.841V99.6136C38.9092 99.6818 38.7842 99.7443 38.591 99.8011C38.4017 99.8542 38.182 99.9015 37.932 99.9432C37.6857 99.9811 37.4452 100.015 37.2104 100.045C36.9793 100.072 36.7918 100.095 36.6479 100.114C36.2994 100.159 35.9736 100.233 35.6706 100.335C35.3713 100.434 35.1289 100.583 34.9433 100.784C34.7615 100.981 34.6706 101.25 34.6706 101.591C34.6706 102.057 34.8429 102.409 35.1876 102.648C35.5361 102.883 35.9774 103 36.5115 103ZM48.7602 97.2273L47.5557 97.5682C47.4799 97.3674 47.3682 97.1723 47.2204 96.983C47.0765 96.7898 46.8795 96.6307 46.6295 96.5057C46.3795 96.3807 46.0595 96.3182 45.6693 96.3182C45.1352 96.3182 44.6901 96.4413 44.3341 96.6875C43.9818 96.9299 43.8057 97.2386 43.8057 97.6136C43.8057 97.947 43.9269 98.2102 44.1693 98.4034C44.4117 98.5966 44.7905 98.7576 45.3057 98.8864L46.6011 99.2045C47.3814 99.3939 47.9629 99.6837 48.3454 100.074C48.728 100.46 48.9193 100.958 48.9193 101.568C48.9193 102.068 48.7754 102.515 48.4875 102.909C48.2034 103.303 47.8057 103.614 47.2943 103.841C46.7829 104.068 46.1882 104.182 45.5102 104.182C44.6201 104.182 43.8833 103.989 43.3 103.602C42.7167 103.216 42.3473 102.652 42.192 101.909L43.4648 101.591C43.586 102.061 43.8151 102.413 44.1523 102.648C44.4932 102.883 44.9382 103 45.4875 103C46.1125 103 46.6087 102.867 46.9761 102.602C47.3473 102.333 47.5329 102.011 47.5329 101.636C47.5329 101.333 47.4269 101.08 47.2148 100.875C47.0026 100.667 46.6769 100.511 46.2375 100.409L44.7829 100.068C43.9837 99.8788 43.3966 99.5852 43.0216 99.1875C42.6504 98.786 42.4648 98.2841 42.4648 97.6818C42.4648 97.1894 42.603 96.7538 42.8795 96.375C43.1598 95.9962 43.5405 95.6989 44.0216 95.483C44.5064 95.267 45.0557 95.1591 45.6693 95.1591C46.5329 95.1591 47.211 95.3485 47.7034 95.7273C48.1996 96.1061 48.5519 96.6061 48.7602 97.2273ZM50.7618 107.273V95.2727H52.0572V96.6591H52.2163C52.3148 96.5076 52.4512 96.3144 52.6254 96.0795C52.8034 95.8409 53.0572 95.6288 53.3868 95.4432C53.7201 95.2538 54.1709 95.1591 54.739 95.1591C55.4739 95.1591 56.1216 95.3428 56.6822 95.7102C57.2428 96.0777 57.6803 96.5985 57.9947 97.2727C58.3091 97.947 58.4663 98.7424 58.4663 99.6591C58.4663 100.583 58.3091 101.384 57.9947 102.062C57.6803 102.737 57.2447 103.259 56.6879 103.631C56.1311 103.998 55.489 104.182 54.7618 104.182C54.2012 104.182 53.7523 104.089 53.4152 103.903C53.0781 103.714 52.8186 103.5 52.6368 103.261C52.455 103.019 52.3148 102.818 52.2163 102.659H52.1027V107.273H50.7618ZM52.08 99.6364C52.08 100.295 52.1765 100.877 52.3697 101.381C52.5629 101.881 52.8451 102.273 53.2163 102.557C53.5875 102.837 54.0421 102.977 54.58 102.977C55.1406 102.977 55.6084 102.83 55.9834 102.534C56.3622 102.235 56.6462 101.833 56.8356 101.33C57.0288 100.822 57.1254 100.258 57.1254 99.6364C57.1254 99.0227 57.0307 98.4697 56.8413 97.9773C56.6557 97.4811 56.3735 97.089 55.9947 96.8011C55.6197 96.5095 55.1481 96.3636 54.58 96.3636C54.0345 96.3636 53.5762 96.5019 53.205 96.7784C52.8337 97.0511 52.5534 97.4337 52.364 97.9261C52.1747 98.4148 52.08 98.9848 52.08 99.6364ZM63.9949 104.182C63.154 104.182 62.4286 103.996 61.8187 103.625C61.2127 103.25 60.7449 102.727 60.4153 102.057C60.0896 101.383 59.9267 100.598 59.9267 99.7045C59.9267 98.8106 60.0896 98.0227 60.4153 97.3409C60.7449 96.6553 61.2032 96.1212 61.7903 95.7386C62.3812 95.3523 63.0706 95.1591 63.8585 95.1591C64.313 95.1591 64.7619 95.2348 65.2051 95.3864C65.6483 95.5379 66.0517 95.7841 66.4153 96.125C66.779 96.4621 67.0687 96.9091 67.2846 97.4659C67.5005 98.0227 67.6085 98.7083 67.6085 99.5227V100.091H60.8812V98.9318H66.2449C66.2449 98.4394 66.1464 98 65.9494 97.6136C65.7562 97.2273 65.4797 96.9223 65.1199 96.6989C64.7638 96.4754 64.3434 96.3636 63.8585 96.3636C63.3244 96.3636 62.8623 96.4962 62.4721 96.7614C62.0858 97.0227 61.7884 97.3636 61.5801 97.7841C61.3718 98.2045 61.2676 98.6553 61.2676 99.1364V99.9091C61.2676 100.568 61.3812 101.127 61.6085 101.585C61.8396 102.04 62.1596 102.386 62.5687 102.625C62.9778 102.86 63.4532 102.977 63.9949 102.977C64.3471 102.977 64.6653 102.928 64.9494 102.83C65.2373 102.727 65.4854 102.576 65.6937 102.375C65.9021 102.17 66.063 101.917 66.1767 101.614L67.4721 101.977C67.3358 102.417 67.1066 102.803 66.7846 103.136C66.4627 103.466 66.0649 103.723 65.5915 103.909C65.118 104.091 64.5858 104.182 63.9949 104.182ZM69.4723 104V95.2727H70.7677V96.5909H70.8586C71.0177 96.1591 71.3056 95.8087 71.7223 95.5398C72.1389 95.2708 72.6086 95.1364 73.1314 95.1364C73.2298 95.1364 73.353 95.1383 73.5007 95.142C73.6484 95.1458 73.7602 95.1515 73.8359 95.1591V96.5227C73.7905 96.5114 73.6863 96.4943 73.5234 96.4716C73.3643 96.4451 73.1958 96.4318 73.0177 96.4318C72.5935 96.4318 72.2147 96.5208 71.8814 96.6989C71.5518 96.8731 71.2905 97.1155 71.0973 97.4261C70.9079 97.733 70.8132 98.0833 70.8132 98.4773V104H69.4723ZM79.7552 104V92.3636H83.8234C84.634 92.3636 85.3026 92.5038 85.8291 92.7841C86.3556 93.0606 86.7476 93.4337 87.0052 93.9034C87.2628 94.3693 87.3916 94.8864 87.3916 95.4545C87.3916 95.9545 87.3026 96.3674 87.1245 96.6932C86.9503 97.0189 86.7192 97.2765 86.4314 97.4659C86.1473 97.6553 85.8386 97.7955 85.5052 97.8864V98C85.8613 98.0227 86.2192 98.1477 86.5791 98.375C86.9389 98.6023 87.2401 98.928 87.4825 99.3523C87.7249 99.7765 87.8461 100.295 87.8461 100.909C87.8461 101.492 87.7136 102.017 87.4484 102.483C87.1832 102.949 86.7647 103.318 86.1927 103.591C85.6207 103.864 84.8764 104 83.9598 104H79.7552ZM81.1643 102.75H83.9598C84.8802 102.75 85.5336 102.572 85.92 102.216C86.3101 101.856 86.5052 101.42 86.5052 100.909C86.5052 100.515 86.4048 100.152 86.2041 99.8182C86.0033 99.4811 85.7173 99.2121 85.3461 99.0114C84.9749 98.8068 84.5355 98.7045 84.0279 98.7045H81.1643V102.75ZM81.1643 97.4773H83.7779C84.2022 97.4773 84.5848 97.3939 84.9257 97.2273C85.2704 97.0606 85.5431 96.8258 85.7439 96.5227C85.9484 96.2197 86.0507 95.8636 86.0507 95.4545C86.0507 94.9432 85.8726 94.5095 85.5166 94.1534C85.1605 93.7936 84.5961 93.6136 83.8234 93.6136H81.1643V97.4773ZM93.4627 104.182C92.6218 104.182 91.8965 103.996 91.2866 103.625C90.6805 103.25 90.2127 102.727 89.8832 102.057C89.5574 101.383 89.3946 100.598 89.3946 99.7045C89.3946 98.8106 89.5574 98.0227 89.8832 97.3409C90.2127 96.6553 90.6711 96.1212 91.2582 95.7386C91.8491 95.3523 92.5385 95.1591 93.3264 95.1591C93.7809 95.1591 94.2298 95.2348 94.673 95.3864C95.1162 95.5379 95.5196 95.7841 95.8832 96.125C96.2468 96.4621 96.5366 96.9091 96.7525 97.4659C96.9684 98.0227 97.0764 98.7083 97.0764 99.5227V100.091H90.3491V98.9318H95.7127C95.7127 98.4394 95.6143 98 95.4173 97.6136C95.2241 97.2273 94.9476 96.9223 94.5877 96.6989C94.2317 96.4754 93.8112 96.3636 93.3264 96.3636C92.7923 96.3636 92.3302 96.4962 91.94 96.7614C91.5537 97.0227 91.2563 97.3636 91.048 97.7841C90.8396 98.2045 90.7355 98.6553 90.7355 99.1364V99.9091C90.7355 100.568 90.8491 101.127 91.0764 101.585C91.3074 102.04 91.6275 102.386 92.0366 102.625C92.4457 102.86 92.9211 102.977 93.4627 102.977C93.815 102.977 94.1332 102.928 94.4173 102.83C94.7052 102.727 94.9533 102.576 95.1616 102.375C95.3699 102.17 95.5309 101.917 95.6446 101.614L96.94 101.977C96.8037 102.417 96.5745 102.803 96.2525 103.136C95.9305 103.466 95.5328 103.723 95.0593 103.909C94.5858 104.091 94.0537 104.182 93.4627 104.182ZM100.281 98.75V104H98.9401V95.2727H100.236V96.6364H100.349C100.554 96.1932 100.864 95.8371 101.281 95.5682C101.698 95.2955 102.236 95.1591 102.895 95.1591C103.486 95.1591 104.003 95.2803 104.446 95.5227C104.889 95.7614 105.234 96.125 105.48 96.6136C105.726 97.0985 105.849 97.7121 105.849 98.4545V104H104.508V98.5455C104.508 97.8598 104.33 97.3258 103.974 96.9432C103.618 96.5568 103.13 96.3636 102.508 96.3636C102.08 96.3636 101.698 96.4564 101.361 96.642C101.027 96.8277 100.764 97.0985 100.571 97.4545C100.378 97.8106 100.281 98.2424 100.281 98.75ZM108.124 95.2727H109.464V104.636C109.464 105.174 109.372 105.64 109.186 106.034C109.004 106.428 108.728 106.733 108.356 106.949C107.989 107.165 107.525 107.273 106.964 107.273C106.919 107.273 106.874 107.273 106.828 107.273C106.783 107.273 106.737 107.273 106.692 107.273V106.023C106.737 106.023 106.779 106.023 106.817 106.023C106.855 106.023 106.896 106.023 106.942 106.023C107.351 106.023 107.65 105.902 107.839 105.659C108.029 105.42 108.124 105.08 108.124 104.636V95.2727ZM108.783 93.8182C108.521 93.8182 108.296 93.7292 108.106 93.5511C107.921 93.3731 107.828 93.1591 107.828 92.9091C107.828 92.6591 107.921 92.4451 108.106 92.267C108.296 92.089 108.521 92 108.783 92C109.044 92 109.267 92.089 109.453 92.267C109.642 92.4451 109.737 92.6591 109.737 92.9091C109.737 93.1591 109.642 93.3731 109.453 93.5511C109.267 93.7292 109.044 93.8182 108.783 93.8182ZM114.313 104.205C113.76 104.205 113.258 104.1 112.807 103.892C112.356 103.68 111.998 103.375 111.733 102.977C111.468 102.576 111.335 102.091 111.335 101.523C111.335 101.023 111.434 100.617 111.631 100.307C111.828 99.9924 112.091 99.7462 112.421 99.5682C112.75 99.3902 113.114 99.2576 113.511 99.1705C113.913 99.0795 114.316 99.0076 114.722 98.9545C115.252 98.8864 115.682 98.8352 116.011 98.8011C116.345 98.7633 116.587 98.7008 116.739 98.6136C116.894 98.5265 116.972 98.375 116.972 98.1591V98.1136C116.972 97.553 116.818 97.1174 116.511 96.8068C116.208 96.4962 115.748 96.3409 115.131 96.3409C114.491 96.3409 113.989 96.4811 113.625 96.7614C113.261 97.0417 113.006 97.3409 112.858 97.6591L111.585 97.2045C111.813 96.6742 112.116 96.2614 112.494 95.9659C112.877 95.6667 113.294 95.4583 113.744 95.3409C114.199 95.2197 114.646 95.1591 115.085 95.1591C115.366 95.1591 115.688 95.1932 116.051 95.2614C116.419 95.3258 116.773 95.4602 117.114 95.6648C117.458 95.8693 117.744 96.178 117.972 96.5909C118.199 97.0038 118.313 97.5568 118.313 98.25V104H116.972V102.818H116.903C116.813 103.008 116.661 103.21 116.449 103.426C116.237 103.642 115.955 103.826 115.602 103.977C115.25 104.129 114.82 104.205 114.313 104.205ZM114.517 103C115.047 103 115.494 102.896 115.858 102.688C116.225 102.479 116.502 102.21 116.688 101.881C116.877 101.551 116.972 101.205 116.972 100.841V99.6136C116.915 99.6818 116.79 99.7443 116.597 99.8011C116.407 99.8542 116.188 99.9015 115.938 99.9432C115.691 99.9811 115.451 100.015 115.216 100.045C114.985 100.072 114.797 100.095 114.653 100.114C114.305 100.159 113.979 100.233 113.676 100.335C113.377 100.434 113.135 100.583 112.949 100.784C112.767 100.981 112.676 101.25 112.676 101.591C112.676 102.057 112.849 102.409 113.193 102.648C113.542 102.883 113.983 103 114.517 103ZM120.584 104V95.2727H121.879V96.6364H121.993C122.175 96.1705 122.468 95.8087 122.874 95.5511C123.279 95.2898 123.766 95.1591 124.334 95.1591C124.91 95.1591 125.389 95.2898 125.772 95.5511C126.158 95.8087 126.459 96.1705 126.675 96.6364H126.766C126.989 96.1856 127.325 95.8277 127.772 95.5625C128.218 95.2936 128.754 95.1591 129.379 95.1591C130.16 95.1591 130.798 95.4034 131.294 95.892C131.79 96.3769 132.039 97.1326 132.039 98.1591V104H130.698V98.1591C130.698 97.5152 130.522 97.0549 130.169 96.7784C129.817 96.5019 129.402 96.3636 128.925 96.3636C128.311 96.3636 127.836 96.5492 127.499 96.9205C127.162 97.2879 126.993 97.7538 126.993 98.3182V104H125.629V98.0227C125.629 97.5265 125.468 97.1269 125.147 96.8239C124.825 96.517 124.41 96.3636 123.902 96.3636C123.554 96.3636 123.228 96.4564 122.925 96.642C122.626 96.8277 122.383 97.0852 122.198 97.4148C122.016 97.7405 121.925 98.1174 121.925 98.5455V104H120.584ZM134.314 104V95.2727H135.655V104H134.314ZM134.996 93.8182C134.735 93.8182 134.509 93.7292 134.32 93.5511C134.134 93.3731 134.042 93.1591 134.042 92.9091C134.042 92.6591 134.134 92.4451 134.32 92.267C134.509 92.089 134.735 92 134.996 92C135.257 92 135.481 92.089 135.667 92.267C135.856 92.4451 135.951 92.6591 135.951 92.9091C135.951 93.1591 135.856 93.3731 135.667 93.5511C135.481 93.7292 135.257 93.8182 134.996 93.8182ZM139.276 98.75V104H137.935V95.2727H139.231V96.6364H139.344C139.549 96.1932 139.859 95.8371 140.276 95.5682C140.693 95.2955 141.231 95.1591 141.89 95.1591C142.481 95.1591 142.998 95.2803 143.441 95.5227C143.884 95.7614 144.229 96.125 144.475 96.6136C144.721 97.0985 144.844 97.7121 144.844 98.4545V104H143.503V98.5455C143.503 97.8598 143.325 97.3258 142.969 96.9432C142.613 96.5568 142.125 96.3636 141.503 96.3636C141.075 96.3636 140.693 96.4564 140.356 96.642C140.022 96.8277 139.759 97.0985 139.566 97.4545C139.373 97.8106 139.276 98.2424 139.276 98.75Z" fill="white"/>
<path d="M30.3494 131.199C29.4025 131.199 28.5549 131.021 27.8068 130.666C27.0587 130.306 26.4645 129.814 26.0241 129.189C25.5885 128.564 25.3565 127.849 25.3281 127.044H27.8849C27.9323 127.641 28.1903 128.128 28.6591 128.507C29.1278 128.881 29.6913 129.068 30.3494 129.068C30.8655 129.068 31.3248 128.95 31.7273 128.713C32.1297 128.476 32.447 128.147 32.679 127.726C32.911 127.304 33.0246 126.824 33.0199 126.284C33.0246 125.735 32.9086 125.247 32.6719 124.821C32.4351 124.395 32.1108 124.061 31.6989 123.82C31.2869 123.573 30.8134 123.45 30.2784 123.45C29.8428 123.446 29.4143 123.526 28.9929 123.692C28.5715 123.857 28.2377 124.075 27.9915 124.345L25.6122 123.955L26.3722 116.455H34.8097V118.656H28.5526L28.1335 122.513H28.2188C28.4886 122.196 28.8698 121.933 29.3622 121.724C29.8546 121.511 30.3944 121.405 30.9815 121.405C31.8622 121.405 32.6482 121.613 33.3395 122.03C34.0308 122.442 34.5753 123.01 34.973 123.734C35.3707 124.459 35.5696 125.287 35.5696 126.22C35.5696 127.181 35.3471 128.038 34.902 128.791C34.4616 129.539 33.8485 130.129 33.0625 130.56C32.2812 130.986 31.3769 131.199 30.3494 131.199ZM37.3461 128.301V126.206L43.518 116.455H45.2651V119.438H44.1998L40.0449 126.021V126.135H48.66V128.301H37.3461ZM44.285 131V127.662L44.3134 126.724V116.455H46.7992V131H44.285ZM56.3101 116.455V131H53.6751V119.018H53.5899L50.1879 121.192V118.777L53.803 116.455H56.3101ZM59.6632 131V129.097L64.713 124.146C65.1959 123.659 65.5984 123.225 65.9203 122.847C66.2423 122.468 66.4838 122.101 66.6448 121.746C66.8058 121.391 66.8862 121.012 66.8862 120.609C66.8862 120.15 66.7821 119.757 66.5737 119.43C66.3654 119.099 66.079 118.843 65.7144 118.663C65.3498 118.483 64.9355 118.393 64.4715 118.393C63.9933 118.393 63.5742 118.493 63.2144 118.692C62.8545 118.886 62.5752 119.163 62.3763 119.523C62.1822 119.883 62.0851 120.311 62.0851 120.808H59.578C59.578 119.885 59.7887 119.082 60.2101 118.401C60.6315 117.719 61.2115 117.191 61.9502 116.817C62.6935 116.443 63.5458 116.256 64.507 116.256C65.4824 116.256 66.3394 116.438 67.078 116.803C67.8166 117.167 68.3896 117.667 68.7968 118.301C69.2087 118.936 69.4147 119.66 69.4147 120.474C69.4147 121.019 69.3105 121.554 69.1022 122.08C68.8938 122.605 68.5269 123.187 68.0013 123.827C67.4805 124.466 66.7489 125.24 65.8067 126.149L63.2996 128.699V128.798H69.6348V131H59.6632ZM76.8987 131L83.0848 118.756V118.656H75.9044V116.455H85.8121V118.706L79.6331 131H76.8987ZM92.6258 131.199C91.6789 131.199 90.8313 131.021 90.0832 130.666C89.3351 130.306 88.7409 129.814 88.3006 129.189C87.8649 128.564 87.6329 127.849 87.6045 127.044H90.1613C90.2087 127.641 90.4667 128.128 90.9355 128.507C91.4042 128.881 91.9677 129.068 92.6258 129.068C93.1419 129.068 93.6012 128.95 94.0037 128.713C94.4061 128.476 94.7234 128.147 94.9554 127.726C95.1874 127.304 95.301 126.824 95.2963 126.284C95.301 125.735 95.185 125.247 94.9483 124.821C94.7115 124.395 94.3872 124.061 93.9753 123.82C93.5633 123.573 93.0899 123.45 92.5548 123.45C92.1192 123.446 91.6907 123.526 91.2693 123.692C90.8479 123.857 90.5141 124.075 90.2679 124.345L87.8886 123.955L88.6486 116.455H97.0861V118.656H90.829L90.4099 122.513H90.4952C90.765 122.196 91.1462 121.933 91.6386 121.724C92.131 121.511 92.6708 121.405 93.2579 121.405C94.1386 121.405 94.9246 121.613 95.6159 122.03C96.3072 122.442 96.8517 123.01 97.2494 123.734C97.6471 124.459 97.846 125.287 97.846 126.22C97.846 127.181 97.6235 128.038 97.1784 128.791C96.7381 129.539 96.1249 130.129 95.3389 130.56C94.5577 130.986 93.6533 131.199 92.6258 131.199ZM105.801 116.455V131H103.167V119.018H103.081L99.6793 121.192V118.777L103.294 116.455H105.801ZM109.155 131V129.097L114.204 124.146C114.687 123.659 115.09 123.225 115.412 122.847C115.734 122.468 115.975 122.101 116.136 121.746C116.297 121.391 116.378 121.012 116.378 120.609C116.378 120.15 116.273 119.757 116.065 119.43C115.857 119.099 115.57 118.843 115.206 118.663C114.841 118.483 114.427 118.393 113.963 118.393C113.485 118.393 113.066 118.493 112.706 118.692C112.346 118.886 112.067 119.163 111.868 119.523C111.674 119.883 111.577 120.311 111.577 120.808H109.069C109.069 119.885 109.28 119.082 109.702 118.401C110.123 117.719 110.703 117.191 111.442 116.817C112.185 116.443 113.037 116.256 113.998 116.256C114.974 116.256 115.831 116.438 116.569 116.803C117.308 117.167 117.881 117.667 118.288 118.301C118.7 118.936 118.906 119.66 118.906 120.474C118.906 121.019 118.802 121.554 118.594 122.08C118.385 122.605 118.018 123.187 117.493 123.827C116.972 124.466 116.24 125.24 115.298 126.149L112.791 128.699V128.798H119.126V131H109.155ZM131.078 131.199C130.055 131.199 129.146 131.024 128.35 130.673C127.56 130.323 126.935 129.835 126.475 129.21C126.016 128.585 125.772 127.863 125.744 127.044H128.414C128.438 127.437 128.568 127.78 128.805 128.074C129.042 128.363 129.357 128.588 129.75 128.749C130.142 128.91 130.583 128.99 131.071 128.99C131.591 128.99 132.053 128.9 132.455 128.72C132.858 128.536 133.173 128.28 133.4 127.953C133.627 127.626 133.739 127.25 133.734 126.824C133.739 126.384 133.625 125.995 133.393 125.659C133.161 125.323 132.825 125.06 132.384 124.871C131.949 124.681 131.423 124.587 130.808 124.587H129.522V122.555H130.808C131.314 122.555 131.757 122.468 132.136 122.293C132.519 122.117 132.82 121.871 133.038 121.554C133.256 121.232 133.362 120.86 133.357 120.439C133.362 120.027 133.27 119.67 133.08 119.366C132.896 119.059 132.633 118.82 132.292 118.649C131.956 118.479 131.561 118.393 131.106 118.393C130.661 118.393 130.249 118.474 129.87 118.635C129.491 118.796 129.186 119.026 128.954 119.324C128.722 119.617 128.599 119.968 128.585 120.375H126.049C126.068 119.561 126.303 118.846 126.752 118.23C127.207 117.61 127.813 117.127 128.571 116.781C129.328 116.431 130.178 116.256 131.12 116.256C132.091 116.256 132.934 116.438 133.649 116.803C134.368 117.162 134.925 117.648 135.318 118.259C135.711 118.869 135.907 119.544 135.907 120.283C135.912 121.102 135.67 121.788 135.183 122.342C134.7 122.896 134.065 123.259 133.279 123.429V123.543C134.302 123.685 135.086 124.063 135.63 124.679C136.179 125.29 136.452 126.05 136.447 126.959C136.447 127.773 136.215 128.502 135.751 129.146C135.292 129.786 134.657 130.287 133.848 130.652C133.043 131.017 132.119 131.199 131.078 131.199ZM138.282 128.301V126.206L144.454 116.455H146.201V119.438H145.136L140.981 126.021V126.135H149.596V128.301H138.282ZM145.221 131V127.662L145.249 126.724V116.455H147.735V131H145.221ZM157.246 116.455V131H154.611V119.018H154.526L151.124 121.192V118.777L154.739 116.455H157.246ZM160.599 131V129.097L165.649 124.146C166.132 123.659 166.534 123.225 166.856 122.847C167.178 122.468 167.42 122.101 167.581 121.746C167.742 121.391 167.822 121.012 167.822 120.609C167.822 120.15 167.718 119.757 167.51 119.43C167.301 119.099 167.015 118.843 166.65 118.663C166.286 118.483 165.871 118.393 165.407 118.393C164.929 118.393 164.51 118.493 164.15 118.692C163.79 118.886 163.511 119.163 163.312 119.523C163.118 119.883 163.021 120.311 163.021 120.808H160.514C160.514 119.885 160.725 119.082 161.146 118.401C161.567 117.719 162.147 117.191 162.886 116.817C163.629 116.443 164.482 116.256 165.443 116.256C166.418 116.256 167.275 116.438 168.014 116.803C168.753 117.167 169.326 117.667 169.733 118.301C170.145 118.936 170.351 119.66 170.351 120.474C170.351 121.019 170.246 121.554 170.038 122.08C169.83 122.605 169.463 123.187 168.937 123.827C168.416 124.466 167.685 125.24 166.743 126.149L164.236 128.699V128.798H170.571V131H160.599ZM182.522 131.199C181.499 131.199 180.59 131.024 179.795 130.673C179.004 130.323 178.379 129.835 177.92 129.21C177.461 128.585 177.217 127.863 177.188 127.044H179.859C179.882 127.437 180.013 127.78 180.249 128.074C180.486 128.363 180.801 128.588 181.194 128.749C181.587 128.91 182.027 128.99 182.515 128.99C183.036 128.99 183.498 128.9 183.9 128.72C184.302 128.536 184.617 128.28 184.845 127.953C185.072 127.626 185.183 127.25 185.178 126.824C185.183 126.384 185.07 125.995 184.837 125.659C184.605 125.323 184.269 125.06 183.829 124.871C183.393 124.681 182.868 124.587 182.252 124.587H180.967V122.555H182.252C182.759 122.555 183.202 122.468 183.58 122.293C183.964 122.117 184.265 121.871 184.482 121.554C184.7 121.232 184.807 120.86 184.802 120.439C184.807 120.027 184.714 119.67 184.525 119.366C184.34 119.059 184.078 118.82 183.737 118.649C183.4 118.479 183.005 118.393 182.551 118.393C182.105 118.393 181.694 118.474 181.315 118.635C180.936 118.796 180.631 119.026 180.399 119.324C180.167 119.617 180.043 119.968 180.029 120.375H177.494C177.513 119.561 177.747 118.846 178.197 118.23C178.651 117.61 179.257 117.127 180.015 116.781C180.773 116.431 181.623 116.256 182.565 116.256C183.535 116.256 184.378 116.438 185.093 116.803C185.813 117.162 186.369 117.648 186.762 118.259C187.155 118.869 187.352 119.544 187.352 120.283C187.356 121.102 187.115 121.788 186.627 122.342C186.144 122.896 185.51 123.259 184.724 123.429V123.543C185.747 123.685 186.53 124.063 187.075 124.679C187.624 125.29 187.896 126.05 187.891 126.959C187.891 127.773 187.659 128.502 187.195 129.146C186.736 129.786 186.102 130.287 185.292 130.652C184.487 131.017 183.564 131.199 182.522 131.199ZM189.727 128.301V126.206L195.898 116.455H197.646V119.438H196.58L192.425 126.021V126.135H201.04V128.301H189.727ZM196.665 131V127.662L196.694 126.724V116.455H199.18V131H196.665ZM208.026 131.199C207.079 131.199 206.232 131.021 205.484 130.666C204.736 130.306 204.142 129.814 203.701 129.189C203.266 128.564 203.034 127.849 203.005 127.044H205.562C205.609 127.641 205.867 128.128 206.336 128.507C206.805 128.881 207.368 129.068 208.026 129.068C208.543 129.068 209.002 128.95 209.404 128.713C209.807 128.476 210.124 128.147 210.356 127.726C210.588 127.304 210.702 126.824 210.697 126.284C210.702 125.735 210.586 125.247 210.349 124.821C210.112 124.395 209.788 124.061 209.376 123.82C208.964 123.573 208.49 123.45 207.955 123.45C207.52 123.446 207.091 123.526 206.67 123.692C206.249 123.857 205.915 124.075 205.669 124.345L203.289 123.955L204.049 116.455H212.487V118.656H206.23L205.811 122.513H205.896C206.166 122.196 206.547 121.933 207.039 121.724C207.532 121.511 208.071 121.405 208.659 121.405C209.539 121.405 210.325 121.613 211.017 122.03C211.708 122.442 212.252 123.01 212.65 123.734C213.048 124.459 213.247 125.287 213.247 126.22C213.247 127.181 213.024 128.038 212.579 128.791C212.139 129.539 211.526 130.129 210.74 130.56C209.958 130.986 209.054 131.199 208.026 131.199ZM220.613 131.199C219.917 131.194 219.237 131.073 218.574 130.837C217.911 130.595 217.315 130.205 216.784 129.665C216.254 129.12 215.833 128.398 215.52 127.499C215.208 126.594 215.054 125.474 215.059 124.139C215.059 122.894 215.191 121.784 215.456 120.808C215.722 119.833 216.103 119.009 216.6 118.337C217.097 117.66 217.696 117.143 218.397 116.788C219.102 116.433 219.891 116.256 220.762 116.256C221.676 116.256 222.485 116.436 223.191 116.795C223.901 117.155 224.474 117.648 224.909 118.273C225.345 118.893 225.615 119.594 225.719 120.375H223.127C222.994 119.816 222.722 119.371 222.31 119.04C221.903 118.704 221.387 118.536 220.762 118.536C219.753 118.536 218.977 118.973 218.432 119.849C217.892 120.725 217.62 121.928 217.615 123.457H217.715C217.947 123.041 218.248 122.683 218.617 122.385C218.986 122.087 219.403 121.857 219.867 121.696C220.336 121.53 220.83 121.447 221.351 121.447C222.204 121.447 222.968 121.651 223.645 122.058C224.327 122.465 224.867 123.027 225.265 123.741C225.662 124.452 225.859 125.266 225.854 126.185C225.859 127.141 225.641 128 225.201 128.763C224.76 129.52 224.147 130.117 223.361 130.553C222.575 130.988 221.659 131.204 220.613 131.199ZM220.598 129.068C221.114 129.068 221.576 128.943 221.983 128.692C222.391 128.441 222.713 128.102 222.949 127.676C223.186 127.25 223.302 126.772 223.297 126.241C223.302 125.721 223.188 125.25 222.956 124.828C222.729 124.407 222.414 124.073 222.012 123.827C221.609 123.58 221.15 123.457 220.634 123.457C220.25 123.457 219.893 123.531 219.561 123.678C219.23 123.824 218.941 124.028 218.695 124.288C218.449 124.544 218.255 124.842 218.113 125.183C217.975 125.519 217.904 125.879 217.9 126.263C217.904 126.769 218.023 127.236 218.255 127.662C218.487 128.088 218.806 128.429 219.213 128.685C219.621 128.94 220.082 129.068 220.598 129.068Z" fill="white"/>
<path d="M25.4148 167.273L28.0057 174.619H28.108L30.6989 167.273H31.8068L28.6023 176H27.5114L24.3068 167.273H25.4148ZM34.3466 176.153C33.9318 176.153 33.5554 176.075 33.2173 175.919C32.8793 175.76 32.6108 175.531 32.4119 175.233C32.2131 174.932 32.1136 174.568 32.1136 174.142C32.1136 173.767 32.1875 173.463 32.3352 173.23C32.483 172.994 32.6804 172.81 32.9276 172.676C33.1747 172.543 33.4474 172.443 33.7457 172.378C34.0469 172.31 34.3494 172.256 34.6534 172.216C35.0511 172.165 35.3736 172.126 35.6207 172.101C35.8707 172.072 36.0526 172.026 36.1662 171.96C36.2827 171.895 36.3409 171.781 36.3409 171.619V171.585C36.3409 171.165 36.2259 170.838 35.9957 170.605C35.7685 170.372 35.4233 170.256 34.9602 170.256C34.4801 170.256 34.1037 170.361 33.831 170.571C33.5582 170.781 33.3665 171.006 33.2557 171.244L32.3011 170.903C32.4716 170.506 32.6989 170.196 32.983 169.974C33.2699 169.75 33.5824 169.594 33.9205 169.506C34.2614 169.415 34.5966 169.369 34.9261 169.369C35.1364 169.369 35.3778 169.395 35.6506 169.446C35.9261 169.494 36.1918 169.595 36.4474 169.749C36.706 169.902 36.9205 170.134 37.0909 170.443C37.2614 170.753 37.3466 171.168 37.3466 171.688V176H36.3409V175.114H36.2898C36.2216 175.256 36.108 175.408 35.9489 175.57C35.7898 175.732 35.5781 175.869 35.3139 175.983C35.0497 176.097 34.7273 176.153 34.3466 176.153ZM34.5 175.25C34.8977 175.25 35.233 175.172 35.5057 175.016C35.7813 174.859 35.9886 174.658 36.1278 174.411C36.2699 174.163 36.3409 173.903 36.3409 173.631V172.71C36.2983 172.761 36.2045 172.808 36.0597 172.851C35.9176 172.891 35.7528 172.926 35.5653 172.957C35.3807 172.986 35.2003 173.011 35.0241 173.034C34.8509 173.054 34.7102 173.071 34.6023 173.085C34.3409 173.119 34.0966 173.175 33.8693 173.251C33.6449 173.325 33.4631 173.437 33.3239 173.588C33.1875 173.736 33.1193 173.937 33.1193 174.193C33.1193 174.543 33.2486 174.807 33.5071 174.986C33.7685 175.162 34.0994 175.25 34.5 175.25ZM40.1879 167.273V176H39.1822V167.273H40.1879ZM42.0298 176V169.455H43.0355V176H42.0298ZM42.5412 168.364C42.3452 168.364 42.1761 168.297 42.0341 168.163C41.8949 168.03 41.8253 167.869 41.8253 167.682C41.8253 167.494 41.8949 167.334 42.0341 167.2C42.1761 167.067 42.3452 167 42.5412 167C42.7372 167 42.9048 167.067 43.044 167.2C43.1861 167.334 43.2571 167.494 43.2571 167.682C43.2571 167.869 43.1861 168.03 43.044 168.163C42.9048 168.297 42.7372 168.364 42.5412 168.364ZM47.3491 176.136C46.8036 176.136 46.3221 175.999 45.9045 175.723C45.4869 175.445 45.1602 175.053 44.9244 174.547C44.6886 174.038 44.5707 173.438 44.5707 172.744C44.5707 172.057 44.6886 171.46 44.9244 170.955C45.1602 170.449 45.4883 170.058 45.9087 169.783C46.3292 169.507 46.815 169.369 47.3661 169.369C47.7923 169.369 48.1289 169.44 48.3761 169.582C48.6261 169.722 48.8164 169.881 48.9471 170.06C49.0806 170.236 49.1843 170.381 49.2582 170.494H49.3434V167.273H50.3491V176H49.3775V174.994H49.2582C49.1843 175.114 49.0792 175.264 48.9428 175.446C48.8065 175.625 48.6119 175.786 48.359 175.928C48.1062 176.067 47.7695 176.136 47.3491 176.136ZM47.4854 175.233C47.8888 175.233 48.2298 175.128 48.5082 174.918C48.7866 174.705 48.9982 174.411 49.1431 174.036C49.288 173.658 49.3604 173.222 49.3604 172.727C49.3604 172.239 49.2894 171.811 49.1474 171.445C49.0053 171.075 48.7951 170.788 48.5167 170.584C48.2383 170.376 47.8945 170.273 47.4854 170.273C47.0593 170.273 46.7042 170.382 46.4201 170.601C46.1388 170.817 45.9272 171.111 45.7852 171.483C45.646 171.852 45.5763 172.267 45.5763 172.727C45.5763 173.193 45.6474 173.616 45.7894 173.997C45.9343 174.375 46.1474 174.676 46.4286 174.901C46.7127 175.122 47.065 175.233 47.4854 175.233ZM55.3647 168.21V167.273H61.9102V168.21H59.1658V176H58.109V168.21H55.3647ZM64.4105 172.062V176H63.4048V167.273H64.4105V170.477H64.4957C64.6491 170.139 64.8793 169.871 65.1861 169.672C65.4957 169.47 65.9077 169.369 66.4219 169.369C66.8679 169.369 67.2585 169.459 67.5938 169.638C67.929 169.814 68.1889 170.085 68.3736 170.452C68.5611 170.815 68.6548 171.278 68.6548 171.841V176H67.6491V171.909C67.6491 171.389 67.5142 170.987 67.2443 170.703C66.9773 170.416 66.6065 170.273 66.1321 170.273C65.8026 170.273 65.5071 170.342 65.2457 170.482C64.9872 170.621 64.7827 170.824 64.6321 171.091C64.4844 171.358 64.4105 171.682 64.4105 172.062ZM70.4947 176V169.455H71.4663V170.443H71.5344C71.6538 170.119 71.8697 169.857 72.1822 169.655C72.4947 169.453 72.8469 169.352 73.239 169.352C73.3129 169.352 73.4052 169.354 73.516 169.357C73.6268 169.359 73.7106 169.364 73.7674 169.369V170.392C73.7333 170.384 73.6552 170.371 73.533 170.354C73.4137 170.334 73.2873 170.324 73.1538 170.324C72.8356 170.324 72.5515 170.391 72.3015 170.524C72.0543 170.655 71.8583 170.837 71.7134 171.07C71.5714 171.3 71.5004 171.562 71.5004 171.858V176H70.4947ZM79.0845 173.324V169.455H80.0902V176H79.0845V174.892H79.0163C78.8629 175.224 78.6243 175.507 78.3004 175.74C77.9766 175.97 77.5675 176.085 77.0732 176.085C76.6641 176.085 76.3004 175.996 75.9822 175.817C75.6641 175.635 75.4141 175.362 75.2322 174.999C75.0504 174.632 74.9595 174.17 74.9595 173.614V169.455H75.9652V173.545C75.9652 174.023 76.0987 174.403 76.3658 174.688C76.6357 174.972 76.9794 175.114 77.397 175.114C77.647 175.114 77.9013 175.05 78.1598 174.922C78.4212 174.794 78.6399 174.598 78.8161 174.334C78.995 174.07 79.0845 173.733 79.0845 173.324Z" fill="white"/>
<path d="M31.358 186.364V198H29.25V188.415H29.1818L26.4602 190.153V188.222L29.3523 186.364H31.358ZM35.9845 198V196.477L40.0243 192.517C40.4106 192.127 40.7326 191.78 40.9902 191.477C41.2478 191.174 41.441 190.881 41.5697 190.597C41.6985 190.312 41.7629 190.009 41.7629 189.688C41.7629 189.32 41.6796 189.006 41.5129 188.744C41.3463 188.479 41.1171 188.275 40.8254 188.131C40.5338 187.987 40.2023 187.915 39.8311 187.915C39.4485 187.915 39.1133 187.994 38.8254 188.153C38.5375 188.309 38.3141 188.53 38.155 188.818C37.9997 189.106 37.922 189.449 37.922 189.847H35.9163C35.9163 189.108 36.0849 188.466 36.422 187.92C36.7591 187.375 37.2231 186.953 37.8141 186.653C38.4088 186.354 39.0906 186.205 39.8595 186.205C40.6398 186.205 41.3254 186.35 41.9163 186.642C42.5072 186.934 42.9656 187.333 43.2913 187.841C43.6209 188.348 43.7856 188.928 43.7856 189.58C43.7856 190.015 43.7023 190.443 43.5356 190.864C43.369 191.284 43.0754 191.75 42.655 192.261C42.2383 192.773 41.6531 193.392 40.8993 194.119L38.8936 196.159V196.239H43.9618V198H35.9845ZM50.9236 185.818L47.1736 199.75H45.3724L49.1224 185.818H50.9236ZM52.4294 198V196.477L56.4692 192.517C56.8555 192.127 57.1775 191.78 57.4351 191.477C57.6926 191.174 57.8858 190.881 58.0146 190.597C58.1434 190.312 58.2078 190.009 58.2078 189.688C58.2078 189.32 58.1245 189.006 57.9578 188.744C57.7911 188.479 57.562 188.275 57.2703 188.131C56.9786 187.987 56.6472 187.915 56.276 187.915C55.8934 187.915 55.5582 187.994 55.2703 188.153C54.9824 188.309 54.7589 188.53 54.5998 188.818C54.4445 189.106 54.3669 189.449 54.3669 189.847H52.3612C52.3612 189.108 52.5298 188.466 52.8669 187.92C53.204 187.375 53.668 186.953 54.2589 186.653C54.8536 186.354 55.5354 186.205 56.3044 186.205C57.0847 186.205 57.7703 186.35 58.3612 186.642C58.9521 186.934 59.4104 187.333 59.7362 187.841C60.0658 188.348 60.2305 188.928 60.2305 189.58C60.2305 190.015 60.1472 190.443 59.9805 190.864C59.8139 191.284 59.5203 191.75 59.0998 192.261C58.6832 192.773 58.0979 193.392 57.3442 194.119L55.3385 196.159V196.239H60.4067V198H52.4294ZM66.9082 198.159C66.1506 198.159 65.4726 198.017 64.8741 197.733C64.2756 197.445 63.8003 197.051 63.448 196.551C63.0995 196.051 62.9139 195.479 62.8912 194.835H64.9366C64.9745 195.312 65.1809 195.703 65.5559 196.006C65.9309 196.305 66.3817 196.455 66.9082 196.455C67.3211 196.455 67.6885 196.36 68.0105 196.17C68.3325 195.981 68.5862 195.718 68.7719 195.381C68.9575 195.044 69.0484 194.659 69.0446 194.227C69.0484 193.788 68.9556 193.398 68.7662 193.057C68.5768 192.716 68.3173 192.449 67.9878 192.256C67.6582 192.059 67.2794 191.96 66.8514 191.96C66.5029 191.956 66.1601 192.021 65.823 192.153C65.4859 192.286 65.2188 192.46 65.0219 192.676L63.1184 192.364L63.7264 186.364H70.4764V188.125H65.4707L65.1355 191.21H65.2037C65.4196 190.956 65.7245 190.746 66.1184 190.58C66.5124 190.409 66.9442 190.324 67.4139 190.324C68.1184 190.324 68.7472 190.491 69.3003 190.824C69.8533 191.153 70.2889 191.608 70.6071 192.188C70.9253 192.767 71.0844 193.43 71.0844 194.176C71.0844 194.945 70.9063 195.631 70.5503 196.233C70.198 196.831 69.7075 197.303 69.0787 197.648C68.4537 197.989 67.7302 198.159 66.9082 198.159Z" fill="white"/>
<path d="M120.08 170H119.023C118.96 169.696 118.851 169.429 118.695 169.199C118.541 168.969 118.354 168.776 118.132 168.619C117.913 168.46 117.67 168.341 117.403 168.261C117.136 168.182 116.858 168.142 116.568 168.142C116.04 168.142 115.561 168.276 115.132 168.543C114.706 168.81 114.366 169.203 114.114 169.723C113.864 170.243 113.739 170.881 113.739 171.636C113.739 172.392 113.864 173.03 114.114 173.55C114.366 174.07 114.706 174.463 115.132 174.73C115.561 174.997 116.04 175.131 116.568 175.131C116.858 175.131 117.136 175.091 117.403 175.011C117.67 174.932 117.913 174.814 118.132 174.658C118.354 174.499 118.541 174.304 118.695 174.074C118.851 173.841 118.96 173.574 119.023 173.273H120.08C120 173.719 119.855 174.118 119.645 174.47C119.435 174.822 119.173 175.122 118.861 175.369C118.548 175.614 118.197 175.8 117.808 175.928C117.422 176.055 117.009 176.119 116.568 176.119C115.824 176.119 115.162 175.938 114.582 175.574C114.003 175.21 113.547 174.693 113.214 174.023C112.882 173.352 112.716 172.557 112.716 171.636C112.716 170.716 112.882 169.92 113.214 169.25C113.547 168.58 114.003 168.062 114.582 167.699C115.162 167.335 115.824 167.153 116.568 167.153C117.009 167.153 117.422 167.217 117.808 167.345C118.197 167.473 118.548 167.661 118.861 167.908C119.173 168.152 119.435 168.45 119.645 168.803C119.855 169.152 120 169.551 120.08 170ZM122.145 167.273L124.736 174.619H124.838L127.429 167.273H128.537L125.333 176H124.242L121.037 167.273H122.145ZM136.509 170H135.452C135.39 169.696 135.281 169.429 135.124 169.199C134.971 168.969 134.783 168.776 134.562 168.619C134.343 168.46 134.1 168.341 133.833 168.261C133.566 168.182 133.288 168.142 132.998 168.142C132.469 168.142 131.991 168.276 131.562 168.543C131.136 168.81 130.796 169.203 130.543 169.723C130.293 170.243 130.168 170.881 130.168 171.636C130.168 172.392 130.293 173.03 130.543 173.55C130.796 174.07 131.136 174.463 131.562 174.73C131.991 174.997 132.469 175.131 132.998 175.131C133.288 175.131 133.566 175.091 133.833 175.011C134.1 174.932 134.343 174.814 134.562 174.658C134.783 174.499 134.971 174.304 135.124 174.074C135.281 173.841 135.39 173.574 135.452 173.273H136.509C136.43 173.719 136.285 174.118 136.075 174.47C135.864 174.822 135.603 175.122 135.29 175.369C134.978 175.614 134.627 175.8 134.238 175.928C133.852 176.055 133.438 176.119 132.998 176.119C132.254 176.119 131.592 175.938 131.012 175.574C130.433 175.21 129.977 174.693 129.644 174.023C129.312 173.352 129.146 172.557 129.146 171.636C129.146 170.716 129.312 169.92 129.644 169.25C129.977 168.58 130.433 168.062 131.012 167.699C131.592 167.335 132.254 167.153 132.998 167.153C133.438 167.153 133.852 167.217 134.238 167.345C134.627 167.473 134.978 167.661 135.29 167.908C135.603 168.152 135.864 168.45 136.075 168.803C136.285 169.152 136.43 169.551 136.509 170Z" fill="white"/>
<path d="M113.426 198V196.477L117.466 192.517C117.852 192.127 118.174 191.78 118.432 191.477C118.689 191.174 118.883 190.881 119.011 190.597C119.14 190.312 119.205 190.009 119.205 189.688C119.205 189.32 119.121 189.006 118.955 188.744C118.788 188.479 118.559 188.275 118.267 188.131C117.975 187.987 117.644 187.915 117.273 187.915C116.89 187.915 116.555 187.994 116.267 188.153C115.979 188.309 115.756 188.53 115.597 188.818C115.441 189.106 115.364 189.449 115.364 189.847H113.358C113.358 189.108 113.527 188.466 113.864 187.92C114.201 187.375 114.665 186.953 115.256 186.653C115.85 186.354 116.532 186.205 117.301 186.205C118.081 186.205 118.767 186.35 119.358 186.642C119.949 186.934 120.407 187.333 120.733 187.841C121.063 188.348 121.227 188.928 121.227 189.58C121.227 190.015 121.144 190.443 120.977 190.864C120.811 191.284 120.517 191.75 120.097 192.261C119.68 192.773 119.095 193.392 118.341 194.119L116.335 196.159V196.239H121.403V198H113.426ZM127.922 198.159C127.104 198.159 126.377 198.019 125.74 197.739C125.108 197.458 124.608 197.068 124.24 196.568C123.873 196.068 123.678 195.491 123.655 194.835H125.791C125.81 195.15 125.914 195.424 126.104 195.659C126.293 195.89 126.545 196.07 126.86 196.199C127.174 196.328 127.526 196.392 127.916 196.392C128.333 196.392 128.702 196.32 129.024 196.176C129.346 196.028 129.598 195.824 129.78 195.562C129.962 195.301 130.051 195 130.047 194.659C130.051 194.307 129.96 193.996 129.774 193.727C129.589 193.458 129.32 193.248 128.967 193.097C128.619 192.945 128.199 192.869 127.706 192.869H126.678V191.244H127.706C128.111 191.244 128.466 191.174 128.769 191.034C129.075 190.894 129.316 190.697 129.49 190.443C129.664 190.186 129.75 189.888 129.746 189.551C129.75 189.222 129.676 188.936 129.524 188.693C129.377 188.447 129.166 188.256 128.894 188.119C128.625 187.983 128.308 187.915 127.945 187.915C127.589 187.915 127.259 187.979 126.956 188.108C126.653 188.237 126.409 188.42 126.223 188.659C126.038 188.894 125.939 189.174 125.928 189.5H123.899C123.914 188.848 124.102 188.277 124.462 187.784C124.825 187.288 125.31 186.902 125.916 186.625C126.522 186.345 127.202 186.205 127.956 186.205C128.733 186.205 129.407 186.35 129.979 186.642C130.555 186.93 131 187.318 131.314 187.807C131.628 188.295 131.786 188.835 131.786 189.426C131.789 190.081 131.596 190.631 131.206 191.074C130.82 191.517 130.312 191.807 129.683 191.943V192.034C130.502 192.148 131.128 192.451 131.564 192.943C132.003 193.432 132.221 194.04 132.217 194.767C132.217 195.419 132.032 196.002 131.661 196.517C131.293 197.028 130.786 197.43 130.138 197.722C129.494 198.013 128.755 198.159 127.922 198.159ZM133.941 195.841V194.165L138.878 186.364H140.276V188.75H139.424L136.1 194.017V194.108H142.992V195.841H133.941ZM139.492 198V195.33L139.514 194.58V186.364H141.503V198H139.492Z" fill="white"/>
<path d="M174.767 176V175.233L179.472 168.21H174.716V167.273H180.733V168.04L176.028 175.062H180.784V176H174.767ZM183.614 167.273V176H182.557V167.273H183.614ZM185.733 176V167.273H188.681C189.366 167.273 189.926 167.396 190.36 167.643C190.798 167.888 191.122 168.219 191.332 168.636C191.542 169.054 191.647 169.52 191.647 170.034C191.647 170.548 191.542 171.016 191.332 171.436C191.125 171.857 190.804 172.192 190.369 172.442C189.934 172.689 189.377 172.812 188.699 172.812H186.585V171.875H188.664C189.133 171.875 189.51 171.794 189.794 171.632C190.078 171.47 190.284 171.251 190.412 170.976C190.542 170.697 190.608 170.384 190.608 170.034C190.608 169.685 190.542 169.372 190.412 169.097C190.284 168.821 190.076 168.605 189.789 168.449C189.502 168.29 189.122 168.21 188.647 168.21H186.789V176H185.733Z" fill="white"/>
<path d="M179.239 186.205C179.795 186.208 180.337 186.307 180.864 186.5C181.394 186.689 181.871 187 182.295 187.432C182.72 187.86 183.057 188.434 183.307 189.153C183.557 189.873 183.682 190.763 183.682 191.824C183.686 192.824 183.58 193.718 183.364 194.506C183.152 195.29 182.847 195.953 182.449 196.494C182.051 197.036 181.572 197.449 181.011 197.733C180.451 198.017 179.82 198.159 179.119 198.159C178.384 198.159 177.733 198.015 177.165 197.727C176.6 197.439 176.144 197.045 175.795 196.545C175.447 196.045 175.233 195.473 175.153 194.83H177.227C177.333 195.292 177.549 195.659 177.875 195.932C178.205 196.201 178.619 196.335 179.119 196.335C179.926 196.335 180.547 195.985 180.983 195.284C181.419 194.583 181.636 193.61 181.636 192.364H181.557C181.371 192.697 181.131 192.985 180.835 193.227C180.54 193.466 180.205 193.65 179.83 193.778C179.458 193.907 179.064 193.972 178.648 193.972C177.966 193.972 177.352 193.809 176.807 193.483C176.265 193.157 175.835 192.71 175.517 192.142C175.203 191.574 175.044 190.924 175.04 190.193C175.04 189.436 175.214 188.756 175.562 188.153C175.915 187.547 176.405 187.07 177.034 186.722C177.663 186.369 178.398 186.197 179.239 186.205ZM179.244 187.909C178.835 187.909 178.466 188.009 178.136 188.21C177.811 188.407 177.553 188.676 177.364 189.017C177.178 189.354 177.085 189.731 177.085 190.148C177.089 190.561 177.182 190.936 177.364 191.273C177.549 191.61 177.801 191.877 178.119 192.074C178.441 192.271 178.809 192.369 179.222 192.369C179.528 192.369 179.814 192.311 180.08 192.193C180.345 192.076 180.576 191.913 180.773 191.705C180.973 191.492 181.129 191.252 181.239 190.983C181.352 190.714 181.407 190.43 181.403 190.131C181.403 189.733 181.309 189.366 181.119 189.028C180.934 188.691 180.678 188.42 180.352 188.216C180.03 188.011 179.661 187.909 179.244 187.909ZM185.382 195.841V194.165L190.32 186.364H191.717V188.75H190.865L187.541 194.017V194.108H194.433V195.841H185.382ZM190.933 198V195.33L190.956 194.58V186.364H192.945V198H190.933ZM202.443 186.364V198H200.336V188.415H200.267L197.546 190.153V188.222L200.438 186.364H202.443ZM211.008 198.222C210.072 198.222 209.269 197.985 208.598 197.511C207.932 197.034 207.418 196.347 207.059 195.449C206.703 194.547 206.525 193.462 206.525 192.193C206.528 190.924 206.708 189.845 207.064 188.955C207.424 188.061 207.937 187.379 208.604 186.909C209.275 186.439 210.076 186.205 211.008 186.205C211.939 186.205 212.74 186.439 213.411 186.909C214.081 187.379 214.595 188.061 214.951 188.955C215.311 189.848 215.49 190.928 215.49 192.193C215.49 193.466 215.311 194.553 214.951 195.455C214.595 196.352 214.081 197.038 213.411 197.511C212.744 197.985 211.943 198.222 211.008 198.222ZM211.008 196.443C211.735 196.443 212.309 196.085 212.729 195.369C213.153 194.65 213.365 193.591 213.365 192.193C213.365 191.269 213.269 190.492 213.076 189.864C212.883 189.235 212.61 188.761 212.258 188.443C211.905 188.121 211.489 187.96 211.008 187.96C210.284 187.96 209.712 188.32 209.292 189.04C208.871 189.756 208.659 190.807 208.655 192.193C208.651 193.121 208.744 193.902 208.934 194.534C209.127 195.167 209.4 195.644 209.752 195.966C210.104 196.284 210.523 196.443 211.008 196.443ZM221.549 198.159C220.791 198.159 220.113 198.017 219.515 197.733C218.916 197.445 218.441 197.051 218.089 196.551C217.74 196.051 217.555 195.479 217.532 194.835H219.577C219.615 195.312 219.822 195.703 220.197 196.006C220.572 196.305 221.022 196.455 221.549 196.455C221.962 196.455 222.329 196.36 222.651 196.17C222.973 195.981 223.227 195.718 223.412 195.381C223.598 195.044 223.689 194.659 223.685 194.227C223.689 193.788 223.596 193.398 223.407 193.057C223.217 192.716 222.958 192.449 222.628 192.256C222.299 192.059 221.92 191.96 221.492 191.96C221.144 191.956 220.801 192.021 220.464 192.153C220.126 192.286 219.859 192.46 219.662 192.676L217.759 192.364L218.367 186.364H225.117V188.125H220.111L219.776 191.21H219.844C220.06 190.956 220.365 190.746 220.759 190.58C221.153 190.409 221.585 190.324 222.055 190.324C222.759 190.324 223.388 190.491 223.941 190.824C224.494 191.153 224.93 191.608 225.248 192.188C225.566 192.767 225.725 193.43 225.725 194.176C225.725 194.945 225.547 195.631 225.191 196.233C224.839 196.831 224.348 197.303 223.719 197.648C223.094 197.989 222.371 198.159 221.549 198.159Z" fill="white"/>
</g>
</g>
<defs>
<filter id="filter0_dd_2164_20791" x="0" y="0" width="351" height="232" filterUnits="userSpaceOnUse" color-interpolation-filters="sRGB">
<feFlood flood-opacity="0" result="BackgroundImageFix"/>
<feColorMatrix in="SourceAlpha" type="matrix" values="0 0 0 0 0 0 0 0 0 0 0 0 0 0 0 0 0 0 127 0" result="hardAlpha"/>
<feOffset dy="4"/>
<feGaussianBlur stdDeviation="4"/>
<feColorMatrix type="matrix" values="0 0 0 0 0 0 0 0 0 0 0 0 0 0 0 0 0 0 0.16 0"/>
<feBlend mode="normal" in2="BackgroundImageFix" result="effect1_dropShadow_2164_20791"/>
<feColorMatrix in="SourceAlpha" type="matrix" values="0 0 0 0 0 0 0 0 0 0 0 0 0 0 0 0 0 0 127 0" result="hardAlpha"/>
<feMorphology radius="1" operator="dilate" in="SourceAlpha" result="effect2_dropShadow_2164_20791"/>
<feOffset/>
<feColorMatrix type="matrix" values="0 0 0 0 0 0 0 0 0 0 0 0 0 0 0 0 0 0 0.04 0"/>
<feBlend mode="normal" in2="effect1_dropShadow_2164_20791" result="effect2_dropShadow_2164_20791"/>
<feBlend mode="normal" in="SourceGraphic" in2="effect2_dropShadow_2164_20791" result="shape"/>
</filter>
<clipPath id="clip0_2164_20791">
<rect x="8" y="4" width="335" height="216" rx="8" fill="white"/>
</clipPath>
</defs>
</svg>
