<svg width="162" height="48" viewBox="0 0 162 48" fill="none" xmlns="http://www.w3.org/2000/svg">
<path d="M88.7122 16.3163V31.636L94.9807 31.6232V37.9936H81.5799V16.3112H77.5258V10.1039H81.5774V0.899902H88.7122V10.109H94.9807V16.3163H88.7122Z" fill="black"/>
<path d="M105.133 0.899902V7.24995H105.13V7.25504H98.0129V0.899902H105.133Z" fill="black"/>
<path d="M27.5024 10.1013H18.9788L6.23792 31.6359H0V38.0064H9.96081L20.3854 20.3705V37.9936H28.7943L39.1705 20.3195V37.9936H46.3054V10.1013H37.7435L27.5024 27.3983V10.1013Z" fill="black"/>
<path d="M98.0054 10.1013H105.14V37.9936H98.0054V10.1013Z" fill="black"/>
<path fill-rule="evenodd" clip-rule="evenodd" d="M62.9984 9.77771H63.0519C70.7271 9.77771 76.8325 16.2093 76.8325 24.0475C76.8325 31.8857 70.7271 38.3172 63.0519 38.3172H62.9984C55.3259 38.3172 49.1644 31.9468 49.1644 24.0475C49.1644 16.1481 55.3259 9.77771 62.9984 9.77771ZM62.9984 31.1824H63.0519V31.1773C66.7825 31.1773 69.7001 27.9895 69.7052 24.0475C69.7052 20.1539 66.7264 16.9126 63.0519 16.9126H62.9984C59.2169 16.9126 56.2993 20.1004 56.2993 24.0475C56.2993 27.9946 59.2169 31.1824 62.9984 31.1824Z" fill="black"/>
<path fill-rule="evenodd" clip-rule="evenodd" d="M149.229 31.98C152.095 31.98 153.882 30.3058 154.368 28.8432H161.503C161.233 31.1696 158.15 38.3122 149.223 38.3122C141.164 38.3122 135.209 32.2526 135.209 24.0271C135.209 15.9672 141.324 9.7446 149.004 9.7446C156.307 9.7446 162 16.1278 162 23.9201C162 24.7304 161.946 25.4897 161.893 26.03H142.527C143.008 29.4394 145.065 31.98 149.229 31.98ZM142.754 20.9438H154.977C154.213 18.1408 152.327 16.0743 149.027 16.0743C145.569 16.0743 143.556 18.0771 142.754 20.9438Z" fill="black"/>
<path d="M122.139 28.3513L128.938 10.1064V10.1217H136.539L125.684 37.9936H118.503L107.711 10.1064H115.341L122.139 28.3513Z" fill="black"/>
</svg>
