<svg width="321" height="212" viewBox="0 0 321 212" fill="none" xmlns="http://www.w3.org/2000/svg">
<g filter="url(#filter0_dd_2156_9353)">
<g clip-path="url(#clip0_2156_9353)">
<rect x="7.2959" y="3.64795" width="305.52" height="196.992" rx="7.296" fill="white"/>
<rect x="7.2959" y="3.64795" width="242.592" height="158.688" rx="7.296" fill="white"/>
<rect x="7.7519" y="4.10395" width="241.68" height="157.776" rx="6.84" stroke="black" stroke-opacity="0.11" stroke-width="0.912"/>
<rect x="7.2959" y="3.64795" width="15.5041" height="197.997" fill="black"/>
<rect x="21.8892" y="3.64795" width="16.4161" height="197.997" fill="#090909"/>
<rect x="37.3926" y="3.64795" width="30.0962" height="197.997" fill="#121212"/>
<rect x="66.5757" y="3.64795" width="46.5124" height="197.997" fill="#1C1C1C"/>
<rect x="112.176" y="3.64795" width="77.5207" height="197.997" fill="#252525"/>
<rect x="188.783" y="3.64795" width="124.033" height="197.997" fill="#2E2E2E"/>
<path d="M276.629 152.232H257.903V185.18H276.629V152.232Z" fill="#FF5F00"/>
<path d="M258.991 168.705C258.991 162.329 261.976 156.217 267.133 152.232C257.905 145.058 244.336 146.652 237.144 155.819C229.816 164.853 231.445 178.138 240.808 185.179C248.542 191.157 259.534 191.157 267.268 185.179C262.112 181.326 258.991 175.215 258.991 168.705Z" fill="#EB001B"/>
<path d="M301.871 168.705C301.871 180.264 292.237 189.696 280.431 189.696C275.682 189.696 270.932 188.102 267.269 185.179C276.496 178.005 278.124 164.853 270.797 155.686C269.711 154.357 268.49 153.162 267.269 152.232C276.496 145.058 290.065 146.652 297.257 155.819C300.243 159.539 301.871 164.056 301.871 168.705Z" fill="#F79E1B"/>
<path d="M299.833 181.725V181.062H300.104V180.929H299.426V181.062H299.697V181.725H299.833ZM301.189 181.725V180.929H300.918L300.646 181.46L300.375 180.929H300.104V181.725H300.24V181.062L300.511 181.593H300.646L300.918 181.062V181.725H301.189Z" fill="#F79E1B"/>
<path d="M257.313 24.5124V33.8267L261.124 33.8189V37.6922H252.977V24.5093H250.512V20.7352H252.975V15.1392H257.313V20.7383H261.124V24.5124H257.313Z" fill="white"/>
<path d="M267.297 15.1392V19H267.295V19.0031H262.968V15.1392H267.297Z" fill="white"/>
<path d="M220.097 20.7336H214.915L207.169 33.8267H203.376V37.6999H209.432L215.77 26.9773V37.6921H220.883L227.192 26.9463V37.6921H231.53V20.7336H226.324L220.097 31.2502V20.7336Z" fill="white"/>
<path d="M262.963 20.7336H267.301V37.6921H262.963V20.7336Z" fill="white"/>
<path fill-rule="evenodd" clip-rule="evenodd" d="M241.679 20.5369H241.712C246.378 20.5369 250.09 24.4473 250.09 29.2129C250.09 33.9785 246.378 37.8889 241.712 37.8889H241.679C237.014 37.8889 233.268 34.0157 233.268 29.2129C233.268 24.4101 237.014 20.5369 241.679 20.5369ZM241.679 33.5509H241.712V33.5478C243.98 33.5478 245.754 31.6096 245.757 29.2129C245.757 26.8456 243.946 24.8749 241.712 24.8749H241.679C239.38 24.8749 237.606 26.813 237.606 29.2129C237.606 31.6127 239.38 33.5509 241.679 33.5509Z" fill="white"/>
<path fill-rule="evenodd" clip-rule="evenodd" d="M294.107 34.0358C295.85 34.0358 296.936 33.0179 297.232 32.1287H301.57C301.406 33.5432 299.531 37.8858 294.104 37.8858C289.203 37.8858 285.583 34.2016 285.583 29.2005C285.583 24.3001 289.301 20.5167 293.971 20.5167C298.411 20.5167 301.872 24.3977 301.872 29.1354C301.872 29.6281 301.839 30.0898 301.807 30.4182L290.032 30.4182C290.325 32.4912 291.575 34.0358 294.107 34.0358ZM290.17 27.3259H297.602C297.137 25.6216 295.991 24.3652 293.985 24.3652C291.882 24.3652 290.658 25.5829 290.17 27.3259Z" fill="white"/>
<path d="M277.637 31.8296L281.77 20.7367V20.746L286.392 20.746L279.792 37.6921H275.426L268.865 20.7367H273.503L277.637 31.8296Z" fill="white"/>
<path d="M248.249 54.7759V46.8166H251.234C251.845 46.8166 252.358 46.9306 252.773 47.1586C253.19 47.3866 253.505 47.7001 253.717 48.0991C253.932 48.4955 254.04 48.9463 254.04 49.4516C254.04 49.962 253.932 50.4154 253.717 50.8118C253.502 51.2082 253.185 51.5204 252.765 51.7484C252.345 51.9738 251.828 52.0865 251.214 52.0865H249.236V50.9012H251.02C251.377 50.9012 251.67 50.839 251.898 50.7146C252.126 50.5903 252.295 50.4193 252.403 50.2016C252.515 49.984 252.571 49.734 252.571 49.4516C252.571 49.1692 252.515 48.9204 252.403 48.7054C252.295 48.4903 252.125 48.3232 251.894 48.204C251.666 48.0823 251.372 48.0214 251.012 48.0214H249.691V54.7759H248.249ZM255.427 54.7759H253.888L256.69 46.8166H258.47L261.276 54.7759H259.737L257.611 48.4489H257.549L255.427 54.7759ZM255.478 51.6551H259.675V52.8133H255.478V51.6551ZM260.968 46.8166H262.596L264.544 50.3377H264.621L266.568 46.8166H268.197L265.301 51.8067V54.7759H263.863V51.8067L260.968 46.8166ZM278.745 49.5021H277.292C277.25 49.2637 277.174 49.0526 277.062 48.8686C276.951 48.6821 276.812 48.524 276.647 48.3945C276.481 48.2649 276.292 48.1678 276.079 48.103C275.869 48.0356 275.643 48.0019 275.399 48.0019C274.966 48.0019 274.583 48.1108 274.249 48.3284C273.915 48.5434 273.653 48.8595 273.464 49.2767C273.275 49.6912 273.18 50.1977 273.18 50.7962C273.18 51.4051 273.275 51.9181 273.464 52.3352C273.655 52.7498 273.917 53.0633 274.249 53.2757C274.583 53.4856 274.965 53.5905 275.395 53.5905C275.634 53.5905 275.856 53.5594 276.064 53.4973C276.274 53.4325 276.461 53.3379 276.627 53.2136C276.796 53.0892 276.937 52.9363 277.051 52.755C277.167 52.5736 277.248 52.3663 277.292 52.1332L278.745 52.1409C278.691 52.5192 278.573 52.8742 278.392 53.2058C278.213 53.5374 277.978 53.8302 277.688 54.0841C277.398 54.3354 277.059 54.5323 276.67 54.6748C276.281 54.8147 275.85 54.8847 275.376 54.8847C274.676 54.8847 274.052 54.7228 273.503 54.3989C272.953 54.075 272.521 53.6074 272.205 52.9959C271.888 52.3845 271.73 51.6512 271.73 50.7962C271.73 49.9387 271.89 49.2054 272.208 48.5966C272.527 47.9851 272.961 47.5174 273.51 47.1936C274.06 46.8697 274.681 46.7078 275.376 46.7078C275.819 46.7078 276.231 46.77 276.612 46.8943C276.993 47.0187 277.332 47.2014 277.63 47.4423C277.928 47.6807 278.173 47.9734 278.364 48.3206C278.559 48.6652 278.686 49.059 278.745 49.5021ZM280.992 54.7759H279.453L282.255 46.8166H284.035L286.841 54.7759H285.302L283.176 48.4489H283.114L280.992 54.7759ZM281.042 51.6551H285.239V52.8133H281.042V51.6551ZM287.889 54.7759V46.8166H290.874C291.485 46.8166 291.998 46.9228 292.413 47.1353C292.83 47.3477 293.145 47.6457 293.357 48.0292C293.572 48.41 293.68 48.8544 293.68 49.3622C293.68 49.8726 293.571 50.3156 293.353 50.6913C293.138 51.0644 292.821 51.3533 292.401 51.558C291.981 51.7601 291.466 51.8611 290.854 51.8611H288.728V50.6641H290.66C291.017 50.6641 291.31 50.6149 291.538 50.5164C291.766 50.4154 291.935 50.269 292.043 50.0773C292.155 49.8829 292.211 49.6446 292.211 49.3622C292.211 49.0798 292.155 48.8388 292.043 48.6393C291.932 48.4372 291.762 48.2844 291.534 48.1807C291.306 48.0745 291.012 48.0214 290.652 48.0214H289.331V54.7759H287.889ZM292.001 51.1693L293.971 54.7759H292.362L290.427 51.1693H292.001ZM297.704 54.7759H295.007V46.8166H297.758C298.549 46.8166 299.227 46.9759 299.795 47.2946C300.365 47.6107 300.803 48.0654 301.108 48.6587C301.414 49.2521 301.567 49.962 301.567 50.7885C301.567 51.6176 301.413 52.3301 301.104 52.926C300.799 53.5219 300.357 53.9792 299.779 54.2979C299.204 54.6165 298.512 54.7759 297.704 54.7759ZM296.449 53.5284H297.634C298.188 53.5284 298.651 53.4273 299.021 53.2252C299.392 53.0205 299.67 52.7161 299.857 52.3119C300.044 51.9052 300.137 51.3973 300.137 50.7885C300.137 50.1796 300.044 49.6744 299.857 49.2728C299.67 48.8686 299.394 48.5668 299.029 48.3673C298.666 48.1652 298.216 48.0641 297.677 48.0641H296.449V53.5284Z" fill="white"/>
<rect x="21.8877" y="18.2402" width="54.944" height="22.648" rx="1.824" fill="#E0F7E5"/>
<path d="M28.5273 34.0642V24.7784H29.6518V33.0667H33.9682V34.0642H28.5273ZM38.3858 34.2093C37.7571 34.2093 37.2054 34.0597 36.7309 33.7604C36.2593 33.4612 35.8906 33.0425 35.6246 32.5045C35.3616 31.9664 35.2301 31.3377 35.2301 30.6183C35.2301 29.8928 35.3616 29.2596 35.6246 28.7185C35.8906 28.1774 36.2593 27.7573 36.7309 27.458C37.2054 27.1588 37.7571 27.0092 38.3858 27.0092C39.0145 27.0092 39.5647 27.1588 40.0362 27.458C40.5108 27.7573 40.8796 28.1774 41.1425 28.7185C41.4085 29.2596 41.5415 29.8928 41.5415 30.6183C41.5415 31.3377 41.4085 31.9664 41.1425 32.5045C40.8796 33.0425 40.5108 33.4612 40.0362 33.7604C39.5647 34.0597 39.0145 34.2093 38.3858 34.2093ZM38.3858 33.2481C38.8634 33.2481 39.2564 33.1257 39.5647 32.8808C39.873 32.636 40.1012 32.314 40.2493 31.915C40.3974 31.516 40.4715 31.0838 40.4715 30.6183C40.4715 30.1528 40.3974 29.719 40.2493 29.317C40.1012 28.915 39.873 28.59 39.5647 28.3422C39.2564 28.0943 38.8634 27.9704 38.3858 27.9704C37.9082 27.9704 37.5153 28.0943 37.207 28.3422C36.8986 28.59 36.6704 28.915 36.5223 29.317C36.3742 29.719 36.3001 30.1528 36.3001 30.6183C36.3001 31.0838 36.3742 31.516 36.5223 31.915C36.6704 32.314 36.8986 32.636 37.207 32.8808C37.5153 33.1257 37.9082 33.2481 38.3858 33.2481ZM45.9966 34.2093C45.3437 34.2093 44.7814 34.0551 44.3099 33.7468C43.8383 33.4385 43.4756 33.0138 43.2217 32.4727C42.9678 31.9317 42.8408 31.3135 42.8408 30.6183C42.8408 29.911 42.9708 29.2868 43.2308 28.7457C43.4937 28.2016 43.8595 27.7769 44.328 27.4716C44.7996 27.1633 45.3497 27.0092 45.9784 27.0092C46.4681 27.0092 46.9094 27.0998 47.3024 27.2812C47.6953 27.4626 48.0173 27.7165 48.2681 28.0429C48.519 28.3694 48.6747 28.7503 48.7352 29.1855H47.6651C47.5835 28.8681 47.4021 28.587 47.121 28.3422C46.8429 28.0943 46.4681 27.9704 45.9966 27.9704C45.5794 27.9704 45.2137 28.0792 44.8993 28.2968C44.588 28.5115 44.3446 28.8152 44.1693 29.2082C43.997 29.5981 43.9109 30.0561 43.9109 30.582C43.9109 31.1201 43.9955 31.5886 44.1648 31.9876C44.3371 32.3866 44.5789 32.6964 44.8902 32.9171C45.2046 33.1377 45.5734 33.2481 45.9966 33.2481C46.2747 33.2481 46.5271 33.1997 46.7538 33.103C46.9805 33.0063 47.1724 32.8672 47.3296 32.6858C47.4868 32.5045 47.5986 32.2868 47.6651 32.0329H48.7352C48.6747 32.444 48.5251 32.8143 48.2863 33.1438C48.0505 33.4702 47.7377 33.7302 47.3477 33.9237C46.9608 34.1141 46.5104 34.2093 45.9966 34.2093ZM51.2893 31.5251L51.2711 30.2012H51.4888L54.5357 27.0998H55.8596L52.6132 30.3825H52.5225L51.2893 31.5251ZM50.2918 34.0642V24.7784H51.3618V34.0642H50.2918ZM54.717 34.0642L51.9966 30.6183L52.7583 29.8747L56.0773 34.0642H54.717ZM59.8624 34.2093C59.1913 34.2093 58.6125 34.0612 58.1258 33.765C57.6422 33.4657 57.2689 33.0486 57.0059 32.5135C56.7459 31.9755 56.616 31.3498 56.616 30.6364C56.616 29.9231 56.7459 29.2943 57.0059 28.7503C57.2689 28.2031 57.6346 27.7769 58.1031 27.4716C58.5747 27.1633 59.1248 27.0092 59.7535 27.0092C60.1163 27.0092 60.4745 27.0696 60.8281 27.1905C61.1818 27.3114 61.5037 27.5079 61.7939 27.78C62.0841 28.049 62.3153 28.4057 62.4876 28.85C62.6599 29.2943 62.746 29.8415 62.746 30.4913V30.9448H57.3777V30.0198H61.6579C61.6579 29.6268 61.5793 29.2762 61.4221 28.9679C61.2679 28.6596 61.0473 28.4162 60.7601 28.2379C60.476 28.0596 60.1405 27.9704 59.7535 27.9704C59.3273 27.9704 58.9586 28.0762 58.6472 28.2878C58.3389 28.4963 58.1016 28.7684 57.9354 29.1039C57.7691 29.4394 57.686 29.7991 57.686 30.183V30.7997C57.686 31.3256 57.7767 31.7715 57.958 32.1372C58.1424 32.4999 58.3979 32.7765 58.7243 32.967C59.0508 33.1544 59.4301 33.2481 59.8624 33.2481C60.1435 33.2481 60.3974 33.2088 60.6241 33.1302C60.8538 33.0486 61.0518 32.9277 61.2181 32.7675C61.3843 32.6042 61.5128 32.4017 61.6035 32.1599L62.6372 32.4501C62.5284 32.8007 62.3455 33.109 62.0886 33.375C61.8317 33.638 61.5143 33.8435 61.1364 33.9917C60.7586 34.1368 60.3339 34.2093 59.8624 34.2093ZM66.9959 34.2093C66.4155 34.2093 65.9032 34.0627 65.4588 33.7695C65.0145 33.4733 64.6669 33.0561 64.416 32.5181C64.1651 31.977 64.0397 31.3377 64.0397 30.6002C64.0397 29.8687 64.1651 29.2339 64.416 28.6958C64.6669 28.1578 65.016 27.7422 65.4634 27.449C65.9107 27.1558 66.4276 27.0092 67.014 27.0092C67.4674 27.0092 67.8256 27.0847 68.0886 27.2359C68.3546 27.384 68.5571 27.5533 68.6962 27.7437C68.8382 27.9311 68.9486 28.0853 69.0272 28.2062H69.1178V24.7784H70.1879V34.0642H69.1541V32.9942H69.0272C68.9486 33.1211 68.8367 33.2813 68.6916 33.4748C68.5466 33.6652 68.3395 33.836 68.0705 33.9871C67.8015 34.1352 67.4433 34.2093 66.9959 34.2093ZM67.141 33.2481C67.5702 33.2481 67.9329 33.1362 68.2292 32.9125C68.5254 32.6858 68.7506 32.373 68.9047 31.974C69.0589 31.572 69.136 31.108 69.136 30.582C69.136 30.0621 69.0604 29.6072 68.9093 29.2173C68.7581 28.8243 68.5345 28.519 68.2382 28.3014C67.942 28.0807 67.5763 27.9704 67.141 27.9704C66.6876 27.9704 66.3097 28.0868 66.0075 28.3195C65.7082 28.5492 65.483 28.8621 65.3319 29.2581C65.1838 29.651 65.1097 30.0923 65.1097 30.582C65.1097 31.0778 65.1853 31.5281 65.3364 31.9332C65.4906 32.3352 65.7173 32.6556 66.0165 32.8944C66.3188 33.1302 66.6936 33.2481 67.141 33.2481Z" fill="#1B6C2D"/>
<path d="M27.2353 83.5317H28.5204V91.1179C28.5204 91.795 28.3961 92.3701 28.1473 92.8434C27.8986 93.3167 27.548 93.676 27.0954 93.9212C26.6429 94.1665 26.1091 94.2891 25.4942 94.2891C24.9139 94.2891 24.3974 94.1838 23.9449 93.973C23.4923 93.7589 23.1365 93.4549 22.8774 93.061C22.6183 92.6672 22.4888 92.1991 22.4888 91.6568H23.7531C23.7531 91.9573 23.8274 92.2199 23.976 92.4444C24.128 92.6655 24.3352 92.8382 24.5978 92.9626C24.8603 93.087 25.1591 93.1491 25.4942 93.1491C25.8639 93.1491 26.1782 93.0714 26.4373 92.916C26.6964 92.7605 26.8933 92.5325 27.0281 92.232C27.1662 91.928 27.2353 91.5566 27.2353 91.1179V83.5317ZM33.1116 94.3306C32.6073 94.3306 32.1495 94.2356 31.7385 94.0456C31.3274 93.8521 31.0009 93.574 30.7591 93.2113C30.5173 92.8451 30.3964 92.403 30.3964 91.8848C30.3964 91.4288 30.4862 91.0591 30.6658 90.7759C30.8455 90.4891 31.0855 90.2646 31.3861 90.1022C31.6866 89.9399 32.0183 89.819 32.381 89.7395C32.7472 89.6566 33.1151 89.591 33.4847 89.5426C33.9684 89.4804 34.3605 89.4338 34.661 89.4027C34.965 89.3681 35.1861 89.3111 35.3243 89.2317C35.4659 89.1522 35.5367 89.014 35.5367 88.8171V88.7757C35.5367 88.2644 35.3968 87.8671 35.117 87.5839C34.8406 87.3006 34.4209 87.159 33.8578 87.159C33.274 87.159 32.8163 87.2868 32.4846 87.5424C32.153 87.798 31.9198 88.071 31.7851 88.3611L30.6244 87.9466C30.8316 87.463 31.108 87.0864 31.4535 86.817C31.8024 86.544 32.1824 86.354 32.5935 86.247C33.008 86.1364 33.4156 86.0811 33.8164 86.0811C34.072 86.0811 34.3656 86.1122 34.6973 86.1744C35.0324 86.2331 35.3554 86.3558 35.6663 86.5423C35.9806 86.7289 36.2415 87.0104 36.4487 87.387C36.656 87.7635 36.7596 88.2679 36.7596 88.9V94.144H35.5367V93.0662H35.4745C35.3916 93.239 35.2535 93.4238 35.06 93.6207C34.8665 93.8176 34.6092 93.9851 34.2879 94.1233C33.9666 94.2615 33.5745 94.3306 33.1116 94.3306ZM33.2982 93.232C33.7818 93.232 34.1895 93.137 34.5211 92.947C34.8562 92.757 35.1084 92.5118 35.2776 92.2112C35.4504 91.9107 35.5367 91.5946 35.5367 91.263V90.1437C35.4849 90.2059 35.3709 90.2629 35.1947 90.3147C35.022 90.363 34.8216 90.4062 34.5936 90.4442C34.3691 90.4788 34.1497 90.5099 33.9355 90.5375C33.7248 90.5617 33.5538 90.5824 33.4225 90.5997C33.1047 90.6411 32.8076 90.7085 32.5313 90.8018C32.2584 90.8916 32.0373 91.028 31.868 91.2111C31.7022 91.3908 31.6193 91.636 31.6193 91.947C31.6193 92.3719 31.7765 92.6931 32.0908 92.9108C32.4086 93.125 32.8111 93.232 33.2982 93.232ZM44.469 87.9673L43.3705 88.2782C43.3014 88.0951 43.1995 87.9172 43.0647 87.7445C42.9335 87.5683 42.7538 87.4232 42.5258 87.3092C42.2978 87.1952 42.0059 87.1382 41.6501 87.1382C41.163 87.1382 40.7571 87.2505 40.4324 87.475C40.1111 87.6961 39.9505 87.9777 39.9505 88.3197C39.9505 88.6237 40.061 88.8638 40.2821 89.04C40.5032 89.2161 40.8486 89.363 41.3185 89.4804L42.4999 89.7706C43.2116 89.9433 43.7418 90.2076 44.0907 90.5634C44.4396 90.9158 44.6141 91.37 44.6141 91.9262C44.6141 92.3822 44.4828 92.7899 44.2203 93.1491C43.9612 93.5084 43.5985 93.7917 43.1321 93.999C42.6657 94.2062 42.1234 94.3099 41.505 94.3099C40.6932 94.3099 40.0213 94.1337 39.4893 93.7813C38.9573 93.429 38.6205 92.9142 38.4788 92.2371L39.6396 91.947C39.7501 92.3753 39.9591 92.6966 40.2666 92.9108C40.5775 93.125 40.9834 93.232 41.4843 93.232C42.0543 93.232 42.5068 93.1111 42.8419 92.8693C43.1805 92.624 43.3497 92.3304 43.3497 91.9884C43.3497 91.712 43.253 91.4806 43.0596 91.294C42.8661 91.104 42.569 90.9624 42.1683 90.8691L40.8417 90.5582C40.1128 90.3855 39.5774 90.1178 39.2354 89.755C38.8968 89.3889 38.7276 88.9311 38.7276 88.3819C38.7276 87.9328 38.8536 87.5355 39.1058 87.19C39.3615 86.8446 39.7086 86.5734 40.1474 86.3765C40.5896 86.1796 41.0905 86.0811 41.6501 86.0811C42.4377 86.0811 43.0561 86.2539 43.5052 86.5993C43.9577 86.9448 44.279 87.4008 44.469 87.9673ZM46.2944 97.1288V86.1848H47.4759V87.4491H47.621C47.7108 87.311 47.8352 87.1348 47.9941 86.9206C48.1564 86.703 48.3879 86.5095 48.6884 86.3402C48.9924 86.1675 49.4035 86.0811 49.9217 86.0811C50.5919 86.0811 51.1826 86.2487 51.6939 86.5838C52.2052 86.9189 52.6042 87.3939 52.8909 88.0088C53.1776 88.6237 53.321 89.3491 53.321 90.1851C53.321 91.028 53.1776 91.7587 52.8909 92.377C52.6042 92.992 52.2069 93.4687 51.6991 93.8072C51.1913 94.1423 50.6057 94.3099 49.9424 94.3099C49.4312 94.3099 49.0218 94.2252 48.7143 94.056C48.4069 93.8832 48.1703 93.688 48.0044 93.4704C47.8386 93.2493 47.7108 93.0662 47.621 92.9211H47.5173V97.1288H46.2944ZM47.4966 90.1644C47.4966 90.7655 47.5847 91.2958 47.7609 91.7552C47.9371 92.2112 48.1944 92.5688 48.533 92.8279C48.8715 93.0835 49.2861 93.2113 49.7766 93.2113C50.2879 93.2113 50.7145 93.0766 51.0565 92.8071C51.402 92.5342 51.6611 92.168 51.8338 91.7086C52.01 91.2457 52.0981 90.731 52.0981 90.1644C52.0981 89.6048 52.0117 89.1004 51.839 88.6513C51.6697 88.1988 51.4123 87.8412 51.0669 87.5787C50.7249 87.3127 50.2948 87.1797 49.7766 87.1797C49.2792 87.1797 48.8612 87.3058 48.5226 87.558C48.1841 87.8067 47.9284 88.1556 47.7557 88.6047C47.583 89.0503 47.4966 89.5702 47.4966 90.1644ZM58.363 94.3099C57.5961 94.3099 56.9346 94.1406 56.3784 93.802C55.8256 93.46 55.399 92.9833 55.0985 92.3719C54.8014 91.757 54.6528 91.0419 54.6528 90.2266C54.6528 89.4113 54.8014 88.6928 55.0985 88.071C55.399 87.4457 55.817 86.9586 56.3525 86.6097C56.8914 86.2573 57.5201 86.0811 58.2386 86.0811C58.6532 86.0811 59.0626 86.1502 59.4667 86.2884C59.8709 86.4266 60.2388 86.6511 60.5705 86.962C60.9021 87.2695 61.1664 87.6771 61.3633 88.185C61.5602 88.6928 61.6586 89.318 61.6586 90.0608V90.579H55.5234V89.5219H60.415C60.415 89.0728 60.3252 88.672 60.1456 88.3197C59.9694 87.9673 59.7172 87.6892 59.389 87.4854C59.0643 87.2816 58.6808 87.1797 58.2386 87.1797C57.7516 87.1797 57.3301 87.3006 56.9743 87.5424C56.6219 87.7808 56.3507 88.0917 56.1607 88.4751C55.9707 88.8586 55.8757 89.2697 55.8757 89.7084V90.4131C55.8757 91.0142 55.9794 91.5238 56.1866 91.9418C56.3974 92.3563 56.6893 92.6724 57.0624 92.89C57.4355 93.1042 57.869 93.2113 58.363 93.2113C58.6843 93.2113 58.9745 93.1664 59.2336 93.0766C59.4961 92.9833 59.7224 92.8451 59.9124 92.662C60.1024 92.4755 60.2492 92.244 60.3528 91.9677L61.5343 92.2993C61.4099 92.7 61.2009 93.0524 60.9073 93.3564C60.6136 93.657 60.2509 93.8919 59.8191 94.0611C59.3873 94.227 58.9019 94.3099 58.363 94.3099ZM63.3584 94.144V86.1848H64.5399V87.387H64.6228C64.7679 86.9931 65.0304 86.6736 65.4104 86.4283C65.7904 86.183 66.2188 86.0604 66.6955 86.0604C66.7853 86.0604 66.8976 86.0621 67.0323 86.0656C67.167 86.069 67.269 86.0742 67.338 86.0811V87.3248C67.2966 87.3144 67.2016 87.2989 67.053 87.2781C66.908 87.254 66.7542 87.2419 66.5919 87.2419C66.205 87.2419 65.8595 87.323 65.5555 87.4854C65.255 87.6443 65.0166 87.8654 64.8404 88.1487C64.6677 88.4285 64.5813 88.748 64.5813 89.1073V94.144H63.3584ZM72.7365 94.144V83.5317H76.4466C77.1859 83.5317 77.7956 83.6595 78.2758 83.9151C78.756 84.1673 79.1135 84.5076 79.3485 84.936C79.5834 85.3609 79.7008 85.8324 79.7008 86.3506C79.7008 86.8066 79.6196 87.1831 79.4573 87.4802C79.2984 87.7773 79.0876 88.0122 78.8251 88.185C78.566 88.3577 78.2845 88.4855 77.9805 88.5684V88.672C78.3052 88.6928 78.6316 88.8068 78.9598 89.014C79.288 89.2213 79.5626 89.5184 79.7837 89.9053C80.0048 90.2922 80.1154 90.7655 80.1154 91.3251C80.1154 91.8571 79.9945 92.3356 79.7526 92.7605C79.5108 93.1854 79.1291 93.5222 78.6075 93.771C78.0858 94.0197 77.407 94.144 76.571 94.144H72.7365ZM74.0215 93.004H76.571C77.4105 93.004 78.0064 92.8417 78.3587 92.517C78.7145 92.1888 78.8925 91.7915 78.8925 91.3251C78.8925 90.9659 78.8009 90.6342 78.6178 90.3302C78.4347 90.0228 78.1739 89.7775 77.8354 89.5944C77.4968 89.4079 77.0961 89.3146 76.6332 89.3146H74.0215V93.004ZM74.0215 88.1953H76.4052C76.7921 88.1953 77.141 88.1193 77.4519 87.9673C77.7663 87.8153 78.015 87.6011 78.1981 87.3248C78.3846 87.0484 78.4779 86.7237 78.4779 86.3506C78.4779 85.8842 78.3155 85.4887 77.9908 85.164C77.6661 84.8358 77.1514 84.6717 76.4466 84.6717H74.0215V88.1953ZM85.2377 94.3099C84.4708 94.3099 83.8093 94.1406 83.2531 93.802C82.7003 93.46 82.2737 92.9833 81.9732 92.3719C81.6761 91.757 81.5275 91.0419 81.5275 90.2266C81.5275 89.4113 81.6761 88.6928 81.9732 88.071C82.2737 87.4457 82.6917 86.9586 83.2272 86.6097C83.7661 86.2573 84.3948 86.0811 85.1133 86.0811C85.5279 86.0811 85.9373 86.1502 86.3414 86.2884C86.7456 86.4266 87.1135 86.6511 87.4452 86.962C87.7768 87.2695 88.0411 87.6771 88.238 88.185C88.4349 88.6928 88.5333 89.318 88.5333 90.0608V90.579H82.3981V89.5219H87.2897C87.2897 89.0728 87.1999 88.672 87.0203 88.3197C86.8441 87.9673 86.5919 87.6892 86.2637 87.4854C85.939 87.2816 85.5555 87.1797 85.1133 87.1797C84.6263 87.1797 84.2048 87.3006 83.849 87.5424C83.4966 87.7808 83.2254 88.0917 83.0354 88.4751C82.8454 88.8586 82.7504 89.2697 82.7504 89.7084V90.4131C82.7504 91.0142 82.8541 91.5238 83.0613 91.9418C83.2721 92.3563 83.564 92.6724 83.9371 92.89C84.3102 93.1042 84.7437 93.2113 85.2377 93.2113C85.559 93.2113 85.8492 93.1664 86.1083 93.0766C86.3708 92.9833 86.5971 92.8451 86.7871 92.662C86.9771 92.4755 87.1239 92.244 87.2275 91.9677L88.409 92.2993C88.2846 92.7 88.0756 93.0524 87.782 93.3564C87.4883 93.657 87.1256 93.8919 86.6938 94.0611C86.262 94.227 85.7766 94.3099 85.2377 94.3099ZM91.456 89.356V94.144H90.2331V86.1848H91.4146V87.4284H91.5182C91.7047 87.0242 91.988 86.6995 92.368 86.4542C92.748 86.2055 93.2386 86.0811 93.8397 86.0811C94.3786 86.0811 94.8501 86.1917 95.2543 86.4128C95.6585 86.6304 95.9728 86.962 96.1974 87.4077C96.4219 87.8499 96.5342 88.4095 96.5342 89.0866V94.144H95.3113V89.1695C95.3113 88.5442 95.1489 88.0571 94.8242 87.7082C94.4995 87.3559 94.0538 87.1797 93.4873 87.1797C93.0969 87.1797 92.748 87.2643 92.4406 87.4336C92.1366 87.6029 91.8965 87.8499 91.7203 88.1746C91.5441 88.4993 91.456 88.8931 91.456 89.356ZM98.6083 86.1848H99.8313V94.7244C99.8313 95.215 99.7466 95.6399 99.5773 95.9991C99.4115 96.3584 99.1593 96.6365 98.8208 96.8334C98.4857 97.0303 98.0625 97.1288 97.5513 97.1288C97.5098 97.1288 97.4683 97.1288 97.4269 97.1288C97.3854 97.1288 97.344 97.1288 97.3025 97.1288V95.9888C97.344 95.9888 97.382 95.9888 97.4165 95.9888C97.4511 95.9888 97.4891 95.9888 97.5305 95.9888C97.9036 95.9888 98.1765 95.8782 98.3493 95.6571C98.522 95.4395 98.6083 95.1286 98.6083 94.7244V86.1848ZM99.2094 84.8582C98.9711 84.8582 98.7655 84.777 98.5928 84.6147C98.4235 84.4523 98.3389 84.2571 98.3389 84.0291C98.3389 83.8011 98.4235 83.606 98.5928 83.4436C98.7655 83.2812 98.9711 83.2 99.2094 83.2C99.4478 83.2 99.6516 83.2812 99.8209 83.4436C99.9936 83.606 100.08 83.8011 100.08 84.0291C100.08 84.2571 99.9936 84.4523 99.8209 84.6147C99.6516 84.777 99.4478 84.8582 99.2094 84.8582ZM104.253 94.3306C103.748 94.3306 103.291 94.2356 102.88 94.0456C102.468 93.8521 102.142 93.574 101.9 93.2113C101.658 92.8451 101.537 92.403 101.537 91.8848C101.537 91.4288 101.627 91.0591 101.807 90.7759C101.987 90.4891 102.227 90.2646 102.527 90.1022C102.828 89.9399 103.159 89.819 103.522 89.7395C103.888 89.6566 104.256 89.591 104.626 89.5426C105.109 89.4804 105.502 89.4338 105.802 89.4027C106.106 89.3681 106.327 89.3111 106.465 89.2317C106.607 89.1522 106.678 89.014 106.678 88.8171V88.7757C106.678 88.2644 106.538 87.8671 106.258 87.5839C105.982 87.3006 105.562 87.159 104.999 87.159C104.415 87.159 103.957 87.2868 103.626 87.5424C103.294 87.798 103.061 88.071 102.926 88.3611L101.765 87.9466C101.973 87.463 102.249 87.0864 102.595 86.817C102.943 86.544 103.323 86.354 103.735 86.247C104.149 86.1364 104.557 86.0811 104.957 86.0811C105.213 86.0811 105.507 86.1122 105.838 86.1744C106.173 86.2331 106.496 86.3558 106.807 86.5423C107.122 86.7289 107.383 87.0104 107.59 87.387C107.797 87.7635 107.901 88.2679 107.901 88.9V94.144H106.678V93.0662H106.616C106.533 93.239 106.395 93.4238 106.201 93.6207C106.008 93.8176 105.75 93.9851 105.429 94.1233C105.108 94.2615 104.716 94.3306 104.253 94.3306ZM104.439 93.232C104.923 93.232 105.331 93.137 105.662 92.947C105.997 92.757 106.249 92.5118 106.419 92.2112C106.591 91.9107 106.678 91.5946 106.678 91.263V90.1437C106.626 90.2059 106.512 90.2629 106.336 90.3147C106.163 90.363 105.963 90.4062 105.735 90.4442C105.51 90.4788 105.291 90.5099 105.077 90.5375C104.866 90.5617 104.695 90.5824 104.564 90.5997C104.246 90.6411 103.949 90.7085 103.672 90.8018C103.399 90.8916 103.178 91.028 103.009 91.2111C102.843 91.3908 102.76 91.636 102.76 91.947C102.76 92.3719 102.918 92.6931 103.232 92.9108C103.55 93.125 103.952 93.232 104.439 93.232ZM109.972 94.144V86.1848H111.154V87.4284H111.257C111.423 87.0035 111.691 86.6736 112.061 86.4387C112.43 86.2003 112.874 86.0811 113.392 86.0811C113.917 86.0811 114.354 86.2003 114.703 86.4387C115.056 86.6736 115.33 87.0035 115.527 87.4284H115.61C115.814 87.0173 116.12 86.6909 116.527 86.449C116.935 86.2038 117.424 86.0811 117.994 86.0811C118.705 86.0811 119.288 86.304 119.74 86.7496C120.193 87.1918 120.419 87.881 120.419 88.8171V94.144H119.196V88.8171C119.196 88.2299 119.035 87.8101 118.714 87.558C118.393 87.3058 118.015 87.1797 117.579 87.1797C117.02 87.1797 116.586 87.349 116.279 87.6875C115.971 88.0226 115.817 88.4475 115.817 88.9622V94.144H114.574V88.6928C114.574 88.2402 114.427 87.8758 114.133 87.5994C113.84 87.3196 113.461 87.1797 112.999 87.1797C112.681 87.1797 112.384 87.2643 112.107 87.4336C111.834 87.6029 111.613 87.8378 111.444 88.1383C111.278 88.4354 111.195 88.7791 111.195 89.1695V94.144H109.972ZM122.494 94.144V86.1848H123.717V94.144H122.494ZM123.116 84.8582C122.878 84.8582 122.672 84.777 122.499 84.6147C122.33 84.4523 122.246 84.2571 122.246 84.0291C122.246 83.8011 122.33 83.606 122.499 83.4436C122.672 83.2812 122.878 83.2 123.116 83.2C123.354 83.2 123.558 83.2812 123.728 83.4436C123.9 83.606 123.987 83.8011 123.987 84.0291C123.987 84.2571 123.9 84.4523 123.728 84.6147C123.558 84.777 123.354 84.8582 123.116 84.8582ZM127.019 89.356V94.144H125.797V86.1848H126.978V87.4284H127.082C127.268 87.0242 127.551 86.6995 127.931 86.4542C128.311 86.2055 128.802 86.0811 129.403 86.0811C129.942 86.0811 130.414 86.1917 130.818 86.4128C131.222 86.6304 131.536 86.962 131.761 87.4077C131.985 87.8499 132.098 88.4095 132.098 89.0866V94.144H130.875V89.1695C130.875 88.5442 130.712 88.0571 130.388 87.7082C130.063 87.3559 129.617 87.1797 129.051 87.1797C128.66 87.1797 128.311 87.2643 128.004 87.4336C127.7 87.6029 127.46 87.8499 127.284 88.1746C127.108 88.4993 127.019 88.8931 127.019 89.356Z" fill="white"/>
<path d="M26.4153 115.361C25.8928 115.361 25.4156 115.234 24.9838 114.979C24.552 114.72 24.2066 114.375 23.9475 113.943C23.6927 113.511 23.5653 113.034 23.5653 112.511C23.5653 111.984 23.6927 111.507 23.9475 111.08C24.2066 110.648 24.552 110.305 24.9838 110.05C25.4156 109.791 25.8928 109.661 26.4153 109.661C26.9421 109.661 27.4193 109.791 27.8468 110.05C28.2786 110.305 28.6219 110.648 28.8767 111.08C29.1358 111.507 29.2653 111.984 29.2653 112.511C29.2653 113.034 29.1358 113.511 28.8767 113.943C28.6219 114.375 28.2786 114.72 27.8468 114.979C27.4193 115.234 26.9421 115.361 26.4153 115.361ZM35.154 115.361C34.6315 115.361 34.1543 115.234 33.7225 114.979C33.2907 114.72 32.9452 114.375 32.6861 113.943C32.4314 113.511 32.304 113.034 32.304 112.511C32.304 111.984 32.4314 111.507 32.6861 111.08C32.9452 110.648 33.2907 110.305 33.7225 110.05C34.1543 109.791 34.6315 109.661 35.154 109.661C35.6808 109.661 36.158 109.791 36.5855 110.05C37.0173 110.305 37.3606 110.648 37.6153 111.08C37.8744 111.507 38.004 111.984 38.004 112.511C38.004 113.034 37.8744 113.511 37.6153 113.943C37.3606 114.375 37.0173 114.72 36.5855 114.979C36.158 115.234 35.6808 115.361 35.154 115.361ZM43.8926 115.361C43.3701 115.361 42.893 115.234 42.4612 114.979C42.0294 114.72 41.6839 114.375 41.4248 113.943C41.17 113.511 41.0426 113.034 41.0426 112.511C41.0426 111.984 41.17 111.507 41.4248 111.08C41.6839 110.648 42.0294 110.305 42.4612 110.05C42.893 109.791 43.3701 109.661 43.8926 109.661C44.4195 109.661 44.8966 109.791 45.3241 110.05C45.7559 110.305 46.0992 110.648 46.354 111.08C46.6131 111.507 46.7426 111.984 46.7426 112.511C46.7426 113.034 46.6131 113.511 46.354 113.943C46.0992 114.375 45.7559 114.72 45.3241 114.979C44.8966 115.234 44.4195 115.361 43.8926 115.361ZM52.6313 115.361C52.1088 115.361 51.6317 115.234 51.1998 114.979C50.768 114.72 50.4226 114.375 50.1635 113.943C49.9087 113.511 49.7813 113.034 49.7813 112.511C49.7813 111.984 49.9087 111.507 50.1635 111.08C50.4226 110.648 50.768 110.305 51.1998 110.05C51.6317 109.791 52.1088 109.661 52.6313 109.661C53.1581 109.661 53.6353 109.791 54.0628 110.05C54.4946 110.305 54.8379 110.648 55.0927 111.08C55.3518 111.507 55.4813 111.984 55.4813 112.511C55.4813 113.034 55.3518 113.511 55.0927 113.943C54.8379 114.375 54.4946 114.72 54.0628 114.979C53.6353 115.234 53.1581 115.361 52.6313 115.361ZM66.9963 119.325C66.0636 119.325 65.2345 119.166 64.5091 118.846C63.7879 118.527 63.2179 118.082 62.7991 117.512C62.3802 116.942 62.1578 116.283 62.1319 115.536H64.5674C64.5889 115.895 64.7077 116.208 64.9236 116.475C65.1395 116.739 65.4267 116.944 65.7851 117.091C66.1435 117.238 66.5451 117.311 66.9899 117.311C67.4649 117.311 67.8859 117.229 68.2529 117.065C68.62 116.896 68.9071 116.663 69.1144 116.365C69.3217 116.067 69.4231 115.724 69.4188 115.335C69.4231 114.934 69.3195 114.58 69.1079 114.273C68.8963 113.967 68.5897 113.727 68.1881 113.554C67.7909 113.381 67.3116 113.295 66.7502 113.295H65.5778V111.443H66.7502C67.2122 111.443 67.616 111.363 67.9614 111.203C68.3112 111.043 68.5854 110.819 68.7841 110.529C68.9827 110.236 69.0799 109.897 69.0755 109.512C69.0799 109.137 68.9956 108.811 68.8229 108.534C68.6545 108.254 68.4149 108.036 68.1039 107.88C67.7974 107.725 67.4368 107.647 67.0222 107.647C66.6163 107.647 66.2406 107.72 65.8952 107.867C65.5497 108.014 65.2712 108.223 65.0596 108.495C64.848 108.763 64.7358 109.083 64.7228 109.454H62.4104C62.4277 108.711 62.6414 108.059 63.0517 107.498C63.4662 106.932 64.0189 106.492 64.7099 106.177C65.4008 105.857 66.1759 105.697 67.0352 105.697C67.9204 105.697 68.6891 105.863 69.3411 106.196C69.9975 106.524 70.5049 106.967 70.8633 107.524C71.2217 108.081 71.4009 108.696 71.4009 109.37C71.4052 110.117 71.185 110.743 70.7402 111.248C70.2997 111.753 69.7211 112.084 69.0043 112.239V112.343C69.937 112.472 70.6517 112.818 71.1483 113.379C71.6492 113.936 71.8975 114.629 71.8931 115.458C71.8931 116.201 71.6816 116.866 71.2584 117.453C70.8395 118.036 70.2609 118.494 69.5225 118.827C68.7884 119.159 67.9463 119.325 66.9963 119.325ZM73.5667 116.683V114.772L79.1955 105.879H80.7889V108.599H79.8173L76.0281 114.603V114.707H83.885V116.683H73.5667ZM79.895 119.144V116.1L79.9209 115.245V105.879H82.188V119.144H79.895ZM90.2563 119.325C89.3926 119.325 88.6197 119.163 87.9374 118.84C87.2551 118.511 86.7132 118.062 86.3116 117.492C85.9143 116.922 85.7027 116.27 85.6768 115.536H88.0086C88.0518 116.08 88.2872 116.525 88.7147 116.871C89.1422 117.212 89.656 117.382 90.2563 117.382C90.7269 117.382 91.1458 117.274 91.5128 117.058C91.8799 116.842 92.1692 116.542 92.3808 116.158C92.5924 115.774 92.696 115.335 92.6917 114.843C92.696 114.342 92.5902 113.897 92.3743 113.509C92.1584 113.12 91.8626 112.816 91.4869 112.596C91.1113 112.371 90.6794 112.259 90.1915 112.259C89.7942 112.254 89.4034 112.328 89.0191 112.479C88.6348 112.63 88.3303 112.829 88.1058 113.075L85.9359 112.719L86.629 105.879H94.324V107.887H88.6175L88.2353 111.404H88.3131C88.5592 111.114 88.9068 110.875 89.3559 110.685C89.805 110.49 90.2973 110.393 90.8327 110.393C91.6359 110.393 92.3527 110.583 92.9832 110.963C93.6136 111.339 94.1102 111.857 94.473 112.518C94.8357 113.178 95.017 113.934 95.017 114.785C95.017 115.661 94.8141 116.443 94.4082 117.13C94.0066 117.812 93.4474 118.349 92.7306 118.742C92.0181 119.131 91.1933 119.325 90.2563 119.325ZM101.735 119.325C101.1 119.321 100.48 119.211 99.8758 118.995C99.2713 118.775 98.7272 118.419 98.2436 117.926C97.7599 117.43 97.3756 116.771 97.0906 115.951C96.8056 115.126 96.6653 114.105 96.6696 112.887C96.6696 111.751 96.7905 110.739 97.0323 109.849C97.2741 108.96 97.6217 108.208 98.0751 107.595C98.5286 106.978 99.0748 106.507 99.7139 106.183C100.357 105.859 101.076 105.697 101.871 105.697C102.704 105.697 103.443 105.861 104.086 106.189C104.734 106.518 105.256 106.967 105.654 107.537C106.051 108.102 106.297 108.742 106.392 109.454H104.028C103.907 108.944 103.659 108.539 103.283 108.236C102.912 107.93 102.441 107.776 101.871 107.776C100.951 107.776 100.243 108.176 99.7463 108.975C99.254 109.774 99.0057 110.87 99.0014 112.265H99.0921C99.3037 111.885 99.5779 111.559 99.9147 111.287C100.252 111.015 100.632 110.806 101.055 110.659C101.482 110.508 101.933 110.432 102.408 110.432C103.186 110.432 103.883 110.618 104.501 110.989C105.122 111.361 105.615 111.872 105.977 112.524C106.34 113.172 106.519 113.915 106.515 114.752C106.519 115.625 106.321 116.408 105.919 117.104C105.518 117.795 104.958 118.339 104.242 118.736C103.525 119.133 102.689 119.33 101.735 119.325ZM101.722 117.382C102.193 117.382 102.614 117.268 102.985 117.039C103.356 116.81 103.65 116.501 103.866 116.113C104.082 115.724 104.188 115.288 104.183 114.804C104.188 114.329 104.084 113.9 103.872 113.515C103.665 113.131 103.378 112.827 103.011 112.602C102.644 112.377 102.225 112.265 101.754 112.265C101.404 112.265 101.078 112.332 100.776 112.466C100.474 112.6 100.21 112.786 99.9859 113.023C99.7614 113.256 99.5844 113.528 99.4548 113.839C99.3296 114.146 99.2648 114.474 99.2605 114.824C99.2648 115.286 99.3728 115.711 99.5844 116.1C99.7959 116.488 100.087 116.799 100.459 117.032C100.83 117.266 101.251 117.382 101.722 117.382Z" fill="white"/>
<path d="M23.178 152.089L25.5409 158.789H25.6342L27.9971 152.089H29.0075L26.085 160.048H25.0901L22.1675 152.089H23.178ZM31.3238 160.188C30.9455 160.188 30.6022 160.117 30.2939 159.974C29.9856 159.829 29.7407 159.62 29.5594 159.348C29.378 159.074 29.2873 158.742 29.2873 158.353C29.2873 158.011 29.3547 157.734 29.4894 157.522C29.6242 157.307 29.8042 157.138 30.0296 157.016C30.255 156.895 30.5038 156.804 30.7758 156.744C31.0504 156.682 31.3264 156.633 31.6036 156.597C31.9663 156.55 32.2604 156.515 32.4858 156.492C32.7138 156.466 32.8796 156.423 32.9833 156.364C33.0895 156.304 33.1426 156.2 33.1426 156.053V156.022C33.1426 155.638 33.0377 155.34 32.8278 155.128C32.6205 154.915 32.3057 154.809 31.8834 154.809C31.4456 154.809 31.1023 154.905 30.8535 155.097C30.6048 155.288 30.4299 155.493 30.3289 155.711L29.4583 155.4C29.6138 155.037 29.8211 154.755 30.0802 154.553C30.3418 154.348 30.6268 154.205 30.9352 154.125C31.2461 154.042 31.5518 154.001 31.8523 154.001C32.0441 154.001 32.2643 154.024 32.513 154.071C32.7643 154.115 33.0066 154.207 33.2398 154.347C33.4755 154.486 33.6712 154.698 33.8266 154.98C33.9821 155.262 34.0598 155.641 34.0598 156.115V160.048H33.1426V159.239H33.096C33.0338 159.369 32.9302 159.508 32.7851 159.655C32.64 159.803 32.4469 159.929 32.206 160.032C31.965 160.136 31.671 160.188 31.3238 160.188ZM31.4637 159.364C31.8264 159.364 32.1322 159.293 32.3809 159.15C32.6322 159.008 32.8213 158.824 32.9483 158.598C33.0778 158.373 33.1426 158.136 33.1426 157.887V157.048C33.1037 157.094 33.0182 157.137 32.8861 157.176C32.7566 157.212 32.6063 157.244 32.4353 157.273C32.2669 157.299 32.1024 157.322 31.9417 157.343C31.7837 157.361 31.6554 157.377 31.557 157.39C31.3186 157.421 31.0958 157.471 30.8885 157.541C30.6838 157.609 30.518 157.711 30.3911 157.848C30.2667 157.983 30.2045 158.167 30.2045 158.4C30.2045 158.719 30.3224 158.96 30.5582 159.123C30.7965 159.284 31.0984 159.364 31.4637 159.364ZM36.651 152.089V160.048H35.7338V152.089H36.651ZM38.3309 160.048V154.078H39.2481V160.048H38.3309ZM38.7973 153.083C38.6185 153.083 38.4643 153.023 38.3348 152.901C38.2078 152.779 38.1444 152.633 38.1444 152.462C38.1444 152.291 38.2078 152.144 38.3348 152.023C38.4643 151.901 38.6185 151.84 38.7973 151.84C38.976 151.84 39.1289 151.901 39.2559 152.023C39.3854 152.144 39.4502 152.291 39.4502 152.462C39.4502 152.633 39.3854 152.779 39.2559 152.901C39.1289 153.023 38.976 153.083 38.7973 153.083ZM43.1821 160.172C42.6846 160.172 42.2454 160.047 41.8646 159.795C41.4837 159.541 41.1858 159.184 40.9707 158.723C40.7557 158.259 40.6481 157.711 40.6481 157.079C40.6481 156.452 40.7557 155.908 40.9707 155.446C41.1858 154.985 41.485 154.629 41.8685 154.378C42.2519 154.126 42.695 154.001 43.1976 154.001C43.5862 154.001 43.8933 154.065 44.1187 154.195C44.3467 154.322 44.5203 154.467 44.6394 154.63C44.7612 154.791 44.8558 154.923 44.9231 155.027H45.0009V152.089H45.9181V160.048H45.032V159.131H44.9231C44.8558 159.239 44.7599 159.377 44.6356 159.543C44.5112 159.706 44.3337 159.852 44.1031 159.982C43.8725 160.109 43.5655 160.172 43.1821 160.172ZM43.3064 159.348C43.6743 159.348 43.9852 159.252 44.2391 159.061C44.4931 158.866 44.6861 158.598 44.8182 158.256C44.9503 157.912 45.0164 157.514 45.0164 157.063C45.0164 156.617 44.9516 156.228 44.8221 155.893C44.6926 155.557 44.5008 155.295 44.2469 155.108C43.993 154.919 43.6795 154.825 43.3064 154.825C42.9178 154.825 42.5939 154.924 42.3348 155.124C42.0783 155.321 41.8853 155.589 41.7558 155.928C41.6288 156.265 41.5653 156.643 41.5653 157.063C41.5653 157.488 41.6301 157.874 41.7596 158.221C41.8918 158.566 42.0861 158.84 42.3426 159.045C42.6017 159.247 42.923 159.348 43.3064 159.348ZM50.4923 152.944V152.089H56.4618V152.944H53.9589V160.048H52.9951V152.944H50.4923ZM58.7421 156.457V160.048H57.8249V152.089H58.7421V155.011H58.8198C58.9597 154.703 59.1696 154.458 59.4494 154.277C59.7318 154.093 60.1075 154.001 60.5764 154.001C60.9832 154.001 61.3395 154.082 61.6452 154.246C61.9509 154.406 62.188 154.654 62.3564 154.988C62.5274 155.319 62.6129 155.742 62.6129 156.255V160.048H61.6957V156.317C61.6957 155.843 61.5727 155.476 61.3265 155.217C61.083 154.955 60.7449 154.825 60.3122 154.825C60.0116 154.825 59.7422 154.888 59.5038 155.015C59.268 155.142 59.0815 155.327 58.9442 155.571C58.8094 155.814 58.7421 156.11 58.7421 156.457ZM64.2908 160.048V154.078H65.1769V154.98H65.2391C65.3479 154.685 65.5448 154.445 65.8298 154.261C66.1148 154.077 66.4361 153.985 66.7937 153.985C66.861 153.985 66.9452 153.986 67.0463 153.989C67.1473 153.992 67.2237 153.995 67.2756 154.001V154.933C67.2445 154.926 67.1732 154.914 67.0618 154.898C66.953 154.88 66.8377 154.871 66.7159 154.871C66.4257 154.871 66.1667 154.932 65.9387 155.054C65.7132 155.173 65.5345 155.339 65.4023 155.551C65.2728 155.761 65.208 156.001 65.208 156.27V160.048H64.2908ZM72.1248 157.607V154.078H73.042V160.048H72.1248V159.037H72.0626C71.9227 159.341 71.7051 159.598 71.4097 159.811C71.1143 160.021 70.7412 160.126 70.2904 160.126C69.9173 160.126 69.5857 160.044 69.2955 159.881C69.0053 159.715 68.7773 159.466 68.6115 159.135C68.4457 158.8 68.3628 158.379 68.3628 157.871V154.078H69.28V157.809C69.28 158.245 69.4017 158.592 69.6453 158.851C69.8914 159.11 70.2049 159.239 70.5858 159.239C70.8138 159.239 71.0457 159.181 71.2814 159.065C71.5198 158.948 71.7193 158.769 71.8799 158.528C72.0432 158.287 72.1248 157.98 72.1248 157.607Z" fill="white"/>
<path d="M25.5098 178.099C25.0918 178.099 24.7101 177.998 24.3646 177.794C24.0191 177.586 23.7428 177.31 23.5355 176.965C23.3317 176.619 23.2298 176.237 23.2298 175.819C23.2298 175.398 23.3317 175.016 23.5355 174.674C23.7428 174.329 24.0191 174.054 24.3646 173.85C24.7101 173.643 25.0918 173.539 25.5098 173.539C25.9312 173.539 26.313 173.643 26.655 173.85C27.0004 174.054 27.2751 174.329 27.4789 174.674C27.6861 175.016 27.7898 175.398 27.7898 175.819C27.7898 176.237 27.6861 176.619 27.4789 176.965C27.2751 177.31 27.0004 177.586 26.655 177.794C26.313 177.998 25.9312 178.099 25.5098 178.099ZM32.5883 178.099C32.1703 178.099 31.7885 177.998 31.4431 177.794C31.0976 177.586 30.8213 177.31 30.614 176.965C30.4102 176.619 30.3083 176.237 30.3083 175.819C30.3083 175.398 30.4102 175.016 30.614 174.674C30.8213 174.329 31.0976 174.054 31.4431 173.85C31.7885 173.643 32.1703 173.539 32.5883 173.539C33.0097 173.539 33.3915 173.643 33.7335 173.85C34.0789 174.054 34.3535 174.329 34.5574 174.674C34.7646 175.016 34.8683 175.398 34.8683 175.819C34.8683 176.237 34.7646 176.619 34.5574 176.965C34.3535 177.31 34.0789 177.586 33.7335 177.794C33.3915 177.998 33.0097 178.099 32.5883 178.099ZM41.3405 168.938L37.9205 181.644H36.2779L39.6979 168.938H41.3405ZM45.0352 178.099C44.6172 178.099 44.2355 177.998 43.8901 177.794C43.5446 177.586 43.2682 177.31 43.061 176.965C42.8572 176.619 42.7552 176.237 42.7552 175.819C42.7552 175.398 42.8572 175.016 43.061 174.674C43.2682 174.329 43.5446 174.054 43.8901 173.85C44.2355 173.643 44.6172 173.539 45.0352 173.539C45.4567 173.539 45.8384 173.643 46.1804 173.85C46.5259 174.054 46.8005 174.329 47.0043 174.674C47.2116 175.016 47.3152 175.398 47.3152 175.819C47.3152 176.237 47.2116 176.619 47.0043 176.965C46.8005 177.31 46.5259 177.586 46.1804 177.794C45.8384 177.998 45.4567 178.099 45.0352 178.099ZM52.1137 178.099C51.6957 178.099 51.314 177.998 50.9686 177.794C50.6231 177.586 50.3467 177.31 50.1395 176.965C49.9356 176.619 49.8337 176.237 49.8337 175.819C49.8337 175.398 49.9356 175.016 50.1395 174.674C50.3467 174.329 50.6231 174.054 50.9686 173.85C51.314 173.643 51.6957 173.539 52.1137 173.539C52.5352 173.539 52.9169 173.643 53.2589 173.85C53.6044 174.054 53.879 174.329 54.0828 174.674C54.2901 175.016 54.3937 175.398 54.3937 175.819C54.3937 176.237 54.2901 176.619 54.0828 176.965C53.879 177.31 53.6044 177.586 53.2589 177.794C52.9169 177.998 52.5352 178.099 52.1137 178.099Z" fill="white"/>
<path d="M108.616 154.576H107.652C107.595 154.299 107.496 154.055 107.353 153.845C107.213 153.635 107.042 153.459 106.84 153.317C106.641 153.172 106.419 153.063 106.175 152.99C105.932 152.918 105.678 152.881 105.414 152.881C104.932 152.881 104.495 153.003 104.104 153.247C103.715 153.49 103.406 153.849 103.175 154.323C102.947 154.797 102.833 155.379 102.833 156.068C102.833 156.757 102.947 157.339 103.175 157.813C103.406 158.287 103.715 158.646 104.104 158.89C104.495 159.133 104.932 159.255 105.414 159.255C105.678 159.255 105.932 159.219 106.175 159.146C106.419 159.074 106.641 158.966 106.84 158.824C107.042 158.679 107.213 158.501 107.353 158.291C107.496 158.079 107.595 157.835 107.652 157.561H108.616C108.544 157.967 108.411 158.331 108.22 158.653C108.028 158.974 107.79 159.247 107.505 159.473C107.22 159.695 106.9 159.865 106.545 159.982C106.192 160.098 105.815 160.157 105.414 160.157C104.735 160.157 104.131 159.991 103.603 159.659C103.074 159.328 102.658 158.856 102.355 158.245C102.052 157.633 101.9 156.908 101.9 156.068C101.9 155.229 102.052 154.503 102.355 153.892C102.658 153.28 103.074 152.809 103.603 152.477C104.131 152.146 104.735 151.98 105.414 151.98C105.815 151.98 106.192 152.038 106.545 152.155C106.9 152.271 107.22 152.442 107.505 152.668C107.79 152.89 108.028 153.163 108.22 153.484C108.411 153.802 108.544 154.166 108.616 154.576ZM110.5 152.089L112.863 158.789H112.956L115.319 152.089H116.33L113.407 160.048H112.412L109.49 152.089H110.5ZM123.6 154.576H122.636C122.579 154.299 122.479 154.055 122.337 153.845C122.197 153.635 122.026 153.459 121.824 153.317C121.624 153.172 121.403 153.063 121.159 152.99C120.916 152.918 120.662 152.881 120.398 152.881C119.916 152.881 119.479 153.003 119.088 153.247C118.699 153.49 118.39 153.849 118.159 154.323C117.931 154.797 117.817 155.379 117.817 156.068C117.817 156.757 117.931 157.339 118.159 157.813C118.39 158.287 118.699 158.646 119.088 158.89C119.479 159.133 119.916 159.255 120.398 159.255C120.662 159.255 120.916 159.219 121.159 159.146C121.403 159.074 121.624 158.966 121.824 158.824C122.026 158.679 122.197 158.501 122.337 158.291C122.479 158.079 122.579 157.835 122.636 157.561H123.6C123.527 157.967 123.395 158.331 123.204 158.653C123.012 158.974 122.773 159.247 122.488 159.473C122.203 159.695 121.884 159.865 121.529 159.982C121.176 160.098 120.799 160.157 120.398 160.157C119.719 160.157 119.115 159.991 118.587 159.659C118.058 159.328 117.642 158.856 117.339 158.245C117.036 157.633 116.884 156.908 116.884 156.068C116.884 155.229 117.036 154.503 117.339 153.892C117.642 153.28 118.058 152.809 118.587 152.477C119.115 152.146 119.719 151.98 120.398 151.98C120.799 151.98 121.176 152.038 121.529 152.155C121.884 152.271 122.203 152.442 122.488 152.668C122.773 152.89 123.012 153.163 123.204 153.484C123.395 153.802 123.527 154.166 123.6 154.576Z" fill="white"/>
<path d="M104.87 178.099C104.452 178.099 104.07 177.998 103.724 177.794C103.379 177.586 103.103 177.31 102.895 176.965C102.692 176.619 102.59 176.237 102.59 175.819C102.59 175.398 102.692 175.016 102.895 174.674C103.103 174.329 103.379 174.054 103.724 173.85C104.07 173.643 104.452 173.539 104.87 173.539C105.291 173.539 105.673 173.643 106.015 173.85C106.36 174.054 106.635 174.329 106.839 174.674C107.046 175.016 107.15 175.398 107.15 175.819C107.15 176.237 107.046 176.619 106.839 176.965C106.635 177.31 106.36 177.586 106.015 177.794C105.673 177.998 105.291 178.099 104.87 178.099ZM111.948 178.099C111.53 178.099 111.148 177.998 110.803 177.794C110.458 177.586 110.181 177.31 109.974 176.965C109.77 176.619 109.668 176.237 109.668 175.819C109.668 175.398 109.77 175.016 109.974 174.674C110.181 174.329 110.458 174.054 110.803 173.85C111.148 173.643 111.53 173.539 111.948 173.539C112.37 173.539 112.751 173.643 113.093 173.85C113.439 174.054 113.713 174.329 113.917 174.674C114.125 175.016 114.228 175.398 114.228 175.819C114.228 176.237 114.125 176.619 113.917 176.965C113.713 177.31 113.439 177.586 113.093 177.794C112.751 177.998 112.37 178.099 111.948 178.099ZM119.027 178.099C118.609 178.099 118.227 177.998 117.881 177.794C117.536 177.586 117.26 177.31 117.052 176.965C116.849 176.619 116.747 176.237 116.747 175.819C116.747 175.398 116.849 175.016 117.052 174.674C117.26 174.329 117.536 174.054 117.881 173.85C118.227 173.643 118.609 173.539 119.027 173.539C119.448 173.539 119.83 173.643 120.172 173.85C120.517 174.054 120.792 174.329 120.996 174.674C121.203 175.016 121.307 175.398 121.307 175.819C121.307 176.237 121.203 176.619 120.996 176.965C120.792 177.31 120.517 177.586 120.172 177.794C119.83 177.998 119.448 178.099 119.027 178.099Z" fill="white"/>
<path d="M152.307 160.048V159.348L156.598 152.944H152.261V152.089H157.748V152.788L153.458 159.193H157.795V160.048H152.307ZM160.376 152.089V160.048H159.412V152.089H160.376ZM162.308 160.048V152.089H164.997C165.622 152.089 166.132 152.201 166.529 152.427C166.928 152.65 167.223 152.951 167.415 153.332C167.606 153.713 167.702 154.138 167.702 154.607C167.702 155.076 167.606 155.502 167.415 155.886C167.226 156.269 166.933 156.575 166.536 156.803C166.14 157.028 165.632 157.141 165.013 157.141H163.085V156.286H164.982C165.409 156.286 165.753 156.212 166.012 156.064C166.271 155.917 166.459 155.717 166.575 155.466C166.694 155.212 166.754 154.926 166.754 154.607C166.754 154.288 166.694 154.003 166.575 153.752C166.459 153.501 166.27 153.304 166.008 153.161C165.746 153.016 165.399 152.944 164.966 152.944H163.272V160.048H162.308Z" fill="white"/>
<path d="M155.23 178.099C154.812 178.099 154.43 177.998 154.085 177.794C153.739 177.586 153.463 177.31 153.256 176.965C153.052 176.619 152.95 176.237 152.95 175.819C152.95 175.398 153.052 175.016 153.256 174.674C153.463 174.329 153.739 174.054 154.085 173.85C154.43 173.643 154.812 173.539 155.23 173.539C155.651 173.539 156.033 173.643 156.375 173.85C156.721 174.054 156.995 174.329 157.199 174.674C157.406 175.016 157.51 175.398 157.51 175.819C157.51 176.237 157.406 176.619 157.199 176.965C156.995 177.31 156.721 177.586 156.375 177.794C156.033 177.998 155.651 178.099 155.23 178.099ZM162.308 178.099C161.89 178.099 161.509 177.998 161.163 177.794C160.818 177.586 160.541 177.31 160.334 176.965C160.13 176.619 160.028 176.237 160.028 175.819C160.028 175.398 160.13 175.016 160.334 174.674C160.541 174.329 160.818 174.054 161.163 173.85C161.509 173.643 161.89 173.539 162.308 173.539C162.73 173.539 163.112 173.643 163.454 173.85C163.799 174.054 164.074 174.329 164.278 174.674C164.485 175.016 164.588 175.398 164.588 175.819C164.588 176.237 164.485 176.619 164.278 176.965C164.074 177.31 163.799 177.586 163.454 177.794C163.112 177.998 162.73 178.099 162.308 178.099ZM169.387 178.099C168.969 178.099 168.587 177.998 168.242 177.794C167.896 177.586 167.62 177.31 167.413 176.965C167.209 176.619 167.107 176.237 167.107 175.819C167.107 175.398 167.209 175.016 167.413 174.674C167.62 174.329 167.896 174.054 168.242 173.85C168.587 173.643 168.969 173.539 169.387 173.539C169.808 173.539 170.19 173.643 170.532 173.85C170.878 174.054 171.152 174.329 171.356 174.674C171.563 175.016 171.667 175.398 171.667 175.819C171.667 176.237 171.563 176.619 171.356 176.965C171.152 177.31 170.878 177.586 170.532 177.794C170.19 177.998 169.808 178.099 169.387 178.099ZM176.465 178.099C176.047 178.099 175.666 177.998 175.32 177.794C174.975 177.586 174.698 177.31 174.491 176.965C174.287 176.619 174.185 176.237 174.185 175.819C174.185 175.398 174.287 175.016 174.491 174.674C174.698 174.329 174.975 174.054 175.32 173.85C175.666 173.643 176.047 173.539 176.465 173.539C176.887 173.539 177.269 173.643 177.611 173.85C177.956 174.054 178.231 174.329 178.435 174.674C178.642 175.016 178.745 175.398 178.745 175.819C178.745 176.237 178.642 176.619 178.435 176.965C178.231 177.31 177.956 177.586 177.611 177.794C177.269 177.998 176.887 178.099 176.465 178.099ZM183.544 178.099C183.126 178.099 182.744 177.998 182.399 177.794C182.053 177.586 181.777 177.31 181.57 176.965C181.366 176.619 181.264 176.237 181.264 175.819C181.264 175.398 181.366 175.016 181.57 174.674C181.777 174.329 182.053 174.054 182.399 173.85C182.744 173.643 183.126 173.539 183.544 173.539C183.965 173.539 184.347 173.643 184.689 173.85C185.035 174.054 185.309 174.329 185.513 174.674C185.72 175.016 185.824 175.398 185.824 175.819C185.824 176.237 185.72 176.619 185.513 176.965C185.309 177.31 185.035 177.586 184.689 177.794C184.347 177.998 183.965 178.099 183.544 178.099Z" fill="white"/>
</g>
</g>
<defs>
<filter id="filter0_dd_2156_9353" x="-0.000101566" y="-5.07832e-05" width="320.112" height="211.584" filterUnits="userSpaceOnUse" color-interpolation-filters="sRGB">
<feFlood flood-opacity="0" result="BackgroundImageFix"/>
<feColorMatrix in="SourceAlpha" type="matrix" values="0 0 0 0 0 0 0 0 0 0 0 0 0 0 0 0 0 0 127 0" result="hardAlpha"/>
<feOffset dy="3.648"/>
<feGaussianBlur stdDeviation="3.648"/>
<feColorMatrix type="matrix" values="0 0 0 0 0 0 0 0 0 0 0 0 0 0 0 0 0 0 0.16 0"/>
<feBlend mode="normal" in2="BackgroundImageFix" result="effect1_dropShadow_2156_9353"/>
<feColorMatrix in="SourceAlpha" type="matrix" values="0 0 0 0 0 0 0 0 0 0 0 0 0 0 0 0 0 0 127 0" result="hardAlpha"/>
<feMorphology radius="0.912" operator="dilate" in="SourceAlpha" result="effect2_dropShadow_2156_9353"/>
<feOffset/>
<feColorMatrix type="matrix" values="0 0 0 0 0 0 0 0 0 0 0 0 0 0 0 0 0 0 0.04 0"/>
<feBlend mode="normal" in2="effect1_dropShadow_2156_9353" result="effect2_dropShadow_2156_9353"/>
<feBlend mode="normal" in="SourceGraphic" in2="effect2_dropShadow_2156_9353" result="shape"/>
</filter>
<clipPath id="clip0_2156_9353">
<rect x="7.2959" y="3.64795" width="305.52" height="196.992" rx="7.296" fill="white"/>
</clipPath>
</defs>
</svg>
